<?xml version="1.0" encoding="UTF-8"?><svg xmlns="http://www.w3.org/2000/svg" xmlns:xlink="http://www.w3.org/1999/xlink" fill-opacity="1" color-rendering="auto" color-interpolation="auto" text-rendering="auto" stroke="black" stroke-linecap="square" width="500" stroke-miterlimit="10" shape-rendering="auto" stroke-opacity="1" fill="black" stroke-dasharray="none" font-weight="normal" stroke-width="1" height="428" font-family="'Dialog'" font-style="normal" stroke-linejoin="miter" font-size="12px" stroke-dashoffset="0" image-rendering="auto">
  <!--Generated by ySVG 2.5-->
  <defs id="genericDefs"/>
  <g>
    <defs id="defs1">
      <clipPath clipPathUnits="userSpaceOnUse" id="clipPath1">
        <path d="M0 0 L500 0 L500 428 L0 428 L0 0 Z"/>
      </clipPath>
      <clipPath clipPathUnits="userSpaceOnUse" id="clipPath2">
        <path d="M383 228 L735 228 L735 529.312 L383 529.312 L383 228 Z"/>
      </clipPath>
    </defs>
    <g fill="white" text-rendering="geometricPrecision" shape-rendering="geometricPrecision" transform="scale(1.4205,1.4205) translate(-383,-228)" stroke="white">
      <rect x="383" width="352" height="302" y="228" clip-path="url(#clipPath2)" stroke="none"/>
    </g>
    <g fill="yellow" text-rendering="geometricPrecision" shape-rendering="geometricPrecision" transform="matrix(1.4205,0,0,1.4205,-544.0341,-323.8636)" stroke="yellow">
      <path d="M558.5 273 L666 479 L451 479 Z" fill-rule="evenodd" clip-path="url(#clipPath2)" stroke="none"/>
    </g>
    <g stroke-linecap="butt" transform="matrix(1.4205,0,0,1.4205,-544.0341,-323.8636)" fill="rgb(255,223,120)" text-rendering="geometricPrecision" shape-rendering="geometricPrecision" stroke="rgb(255,223,120)" stroke-width="2" stroke-miterlimit="1.45">
      <path fill="none" d="M558.5 273 L666 479 L451 479 Z" fill-rule="evenodd" clip-path="url(#clipPath2)"/>
    </g>
    <g font-size="16px" stroke-linecap="butt" transform="matrix(1.4205,0,0,1.4205,-544.0341,-323.8636)" text-rendering="geometricPrecision" font-family="sans-serif" shape-rendering="geometricPrecision" stroke-miterlimit="1.45">
      <text x="479.3398" xml:space="preserve" y="264.2852" clip-path="url(#clipPath2)" stroke="none">Do I do X or not do X?</text>
      <text x="421.875" xml:space="preserve" y="506.2852" clip-path="url(#clipPath2)" stroke="none">I want X!</text>
      <text x="614.5547" xml:space="preserve" y="506.2852" clip-path="url(#clipPath2)" stroke="none">I don't want X!</text>
    </g>
  </g>
</svg>
