<?xml version="1.0" encoding="UTF-8"?><svg xmlns="http://www.w3.org/2000/svg" xmlns:xlink="http://www.w3.org/1999/xlink" fill-opacity="1" color-rendering="auto" color-interpolation="auto" text-rendering="auto" stroke="black" stroke-linecap="square" width="500" stroke-miterlimit="10" shape-rendering="auto" stroke-opacity="1" fill="black" stroke-dasharray="none" font-weight="normal" stroke-width="1" height="500" font-family="'Dialog'" font-style="normal" stroke-linejoin="miter" font-size="12px" stroke-dashoffset="0" image-rendering="auto">
  <!--Generated by ySVG 2.5-->
  <defs id="genericDefs"/>
  <g>
    <defs id="defs1">
      <clipPath clipPathUnits="userSpaceOnUse" id="clipPath1">
        <path d="M0 0 L500 0 L500 500 L0 500 L0 0 Z"/>
      </clipPath>
      <clipPath clipPathUnits="userSpaceOnUse" id="clipPath2">
        <path d="M-15 -15 L220 -15 L220 220 L-15 220 L-15 -15 Z"/>
      </clipPath>
    </defs>
    <g fill="white" text-rendering="geometricPrecision" shape-rendering="geometricPrecision" transform="scale(2.1277,2.1277) translate(15,15)" stroke="white">
      <rect x="-15" width="236" height="236" y="-15" clip-path="url(#clipPath2)" stroke="none"/>
    </g>
    <g text-rendering="geometricPrecision" shape-rendering="geometricPrecision" transform="matrix(2.1277,0,0,2.1277,31.9149,31.9149)">
      <circle r="2.5" clip-path="url(#clipPath2)" cx="175.3097" cy="29.5843" stroke="none"/>
      <circle stroke-linecap="butt" clip-path="url(#clipPath2)" fill="none" r="2.5" cx="175.3097" cy="29.5843" stroke-miterlimit="1.45"/>
      <circle r="2.5" clip-path="url(#clipPath2)" cx="129.0055" cy="2.8506" stroke="none"/>
      <circle stroke-linecap="butt" clip-path="url(#clipPath2)" fill="none" r="2.5" cx="129.0055" cy="2.8506" stroke-miterlimit="1.45"/>
      <circle r="2.5" clip-path="url(#clipPath2)" cx="75.538" cy="2.8506" stroke="none"/>
      <circle stroke-linecap="butt" clip-path="url(#clipPath2)" fill="none" r="2.5" cx="75.538" cy="2.8506" stroke-miterlimit="1.45"/>
      <circle r="2.5" clip-path="url(#clipPath2)" cx="29.2338" cy="29.5843" stroke="none"/>
      <circle stroke-linecap="butt" clip-path="url(#clipPath2)" fill="none" r="2.5" cx="29.2338" cy="29.5843" stroke-miterlimit="1.45"/>
      <circle r="2.5" clip-path="url(#clipPath2)" cx="175.3097" cy="175.6603" stroke="none"/>
      <circle stroke-linecap="butt" clip-path="url(#clipPath2)" fill="none" r="2.5" cx="175.3097" cy="175.6603" stroke-miterlimit="1.45"/>
      <circle r="2.5" clip-path="url(#clipPath2)" cx="202.0434" cy="129.3561" stroke="none"/>
      <circle stroke-linecap="butt" clip-path="url(#clipPath2)" fill="none" r="2.5" cx="202.0434" cy="129.3561" stroke-miterlimit="1.45"/>
      <circle r="2.5" clip-path="url(#clipPath2)" cx="202.0434" cy="75.8886" stroke="none"/>
      <circle stroke-linecap="butt" clip-path="url(#clipPath2)" fill="none" r="2.5" cx="202.0434" cy="75.8886" stroke-miterlimit="1.45"/>
      <circle r="2.5" clip-path="url(#clipPath2)" cx="2.5" cy="75.8886" stroke="none"/>
      <circle stroke-linecap="butt" clip-path="url(#clipPath2)" fill="none" r="2.5" cx="2.5" cy="75.8886" stroke-miterlimit="1.45"/>
      <circle r="2.5" clip-path="url(#clipPath2)" cx="129.0055" cy="202.394" stroke="none"/>
      <circle stroke-linecap="butt" clip-path="url(#clipPath2)" fill="none" r="2.5" cx="129.0055" cy="202.394" stroke-miterlimit="1.45"/>
      <circle r="2.5" clip-path="url(#clipPath2)" cx="75.538" cy="202.394" stroke="none"/>
      <circle stroke-linecap="butt" clip-path="url(#clipPath2)" fill="none" r="2.5" cx="75.538" cy="202.394" stroke-miterlimit="1.45"/>
      <circle r="2.5" clip-path="url(#clipPath2)" cx="29.2338" cy="175.6603" stroke="none"/>
      <circle stroke-linecap="butt" clip-path="url(#clipPath2)" fill="none" r="2.5" cx="29.2338" cy="175.6603" stroke-miterlimit="1.45"/>
      <circle r="2.5" clip-path="url(#clipPath2)" cx="2.5" cy="129.3561" stroke="none"/>
      <circle stroke-linecap="butt" clip-path="url(#clipPath2)" fill="none" r="2.5" cx="2.5" cy="129.3561" stroke-miterlimit="1.45"/>
      <path fill="none" stroke-miterlimit="1.45" d="M173.1446 28.3343 L131.1705 4.1006" clip-path="url(#clipPath2)" stroke-linecap="butt"/>
      <path fill="none" stroke-miterlimit="1.45" d="M126.5055 2.8506 L78.038 2.8506" clip-path="url(#clipPath2)" stroke-linecap="butt"/>
      <path fill="none" stroke-miterlimit="1.45" d="M77.9528 3.4976 L172.8949 28.9373" clip-path="url(#clipPath2)" stroke-linecap="butt"/>
      <path fill="none" stroke-miterlimit="1.45" d="M73.3729 4.1006 L31.3988 28.3343" clip-path="url(#clipPath2)" stroke-linecap="butt"/>
      <path fill="none" stroke-miterlimit="1.45" d="M126.5907 3.4976 L31.6486 28.9373" clip-path="url(#clipPath2)" stroke-linecap="butt"/>
      <path fill="none" stroke-miterlimit="1.45" d="M172.8097 29.5843 L31.7338 29.5843" clip-path="url(#clipPath2)" stroke-linecap="butt"/>
      <path fill="none" stroke-miterlimit="1.45" d="M76.788 5.0156 L174.083 173.5355" clip-path="url(#clipPath2)" stroke-linecap="butt"/>
      <path fill="none" stroke-miterlimit="1.45" d="M129.6525 5.2654 L174.652 173.2059" clip-path="url(#clipPath2)" stroke-linecap="butt"/>
      <path fill="none" stroke-miterlimit="1.45" d="M175.3097 32.0843 L175.3097 173.1603" clip-path="url(#clipPath2)" stroke-linecap="butt"/>
      <path fill="none" stroke-miterlimit="1.45" d="M173.5419 173.8925 L31.0015 31.3521" clip-path="url(#clipPath2)" stroke-linecap="butt"/>
      <path fill="none" stroke-miterlimit="1.45" d="M176.5597 173.4952 L200.7934 131.5211" clip-path="url(#clipPath2)" stroke-linecap="butt"/>
      <path fill="none" stroke-miterlimit="1.45" d="M175.9567 31.9992 L201.3964 126.9412" clip-path="url(#clipPath2)" stroke-linecap="butt"/>
      <path fill="none" stroke-miterlimit="1.45" d="M77.3057 4.6184 L200.2757 127.5883" clip-path="url(#clipPath2)" stroke-linecap="butt"/>
      <path fill="none" stroke-miterlimit="1.45" d="M130.2555 5.0156 L200.7934 127.191" clip-path="url(#clipPath2)" stroke-linecap="butt"/>
      <path fill="none" stroke-miterlimit="1.45" d="M199.8784 128.106 L31.3988 30.8343" clip-path="url(#clipPath2)" stroke-linecap="butt"/>
      <path fill="none" stroke-miterlimit="1.45" d="M202.0434 126.8561 L202.0434 78.3885" clip-path="url(#clipPath2)" stroke-linecap="butt"/>
      <path fill="none" stroke-miterlimit="1.45" d="M130.7732 4.6184 L200.2757 74.1208" clip-path="url(#clipPath2)" stroke-linecap="butt"/>
      <path fill="none" stroke-miterlimit="1.45" d="M77.703 4.1006 L199.8784 74.6385" clip-path="url(#clipPath2)" stroke-linecap="butt"/>
      <path fill="none" stroke-miterlimit="1.45" d="M200.7934 73.7235 L176.5597 31.7494" clip-path="url(#clipPath2)" stroke-linecap="butt"/>
      <path fill="none" stroke-miterlimit="1.45" d="M201.3964 78.3034 L175.9567 173.2455" clip-path="url(#clipPath2)" stroke-linecap="butt"/>
      <path fill="none" stroke-miterlimit="1.45" d="M199.6286 75.2415 L31.6486 30.2314" clip-path="url(#clipPath2)" stroke-linecap="butt"/>
      <path fill="none" stroke-miterlimit="1.45" d="M27.9838 31.7494 L3.75 73.7235" clip-path="url(#clipPath2)" stroke-linecap="butt"/>
      <path fill="none" stroke-miterlimit="1.45" d="M73.7702 4.6184 L4.2678 74.1208" clip-path="url(#clipPath2)" stroke-linecap="butt"/>
      <path fill="none" stroke-miterlimit="1.45" d="M126.8404 4.1006 L4.6651 74.6385" clip-path="url(#clipPath2)" stroke-linecap="butt"/>
      <path fill="none" stroke-miterlimit="1.45" d="M172.8949 30.2314 L4.9544 75.2309" clip-path="url(#clipPath2)" stroke-linecap="butt"/>
      <path fill="none" stroke-miterlimit="1.45" d="M199.5434 75.8885 L5 75.8885" clip-path="url(#clipPath2)" stroke-linecap="butt"/>
      <path fill="none" stroke-miterlimit="1.45" d="M199.6286 128.709 L4.9545 76.5462" clip-path="url(#clipPath2)" stroke-linecap="butt"/>
      <path fill="none" stroke-miterlimit="1.45" d="M173.1446 174.4103 L4.6651 77.1385" clip-path="url(#clipPath2)" stroke-linecap="butt"/>
      <path fill="none" stroke-miterlimit="1.45" d="M200.2757 131.1238 L130.7732 200.6263" clip-path="url(#clipPath2)" stroke-linecap="butt"/>
      <path fill="none" stroke-miterlimit="1.45" d="M76.185 5.2654 L128.3584 199.9792" clip-path="url(#clipPath2)" stroke-linecap="butt"/>
      <path fill="none" stroke-miterlimit="1.45" d="M129.0055 5.3506 L129.0055 199.9406" clip-path="url(#clipPath2)" stroke-linecap="butt"/>
      <path fill="none" stroke-miterlimit="1.45" d="M174.6626 31.9992 L129.6631 199.9396" clip-path="url(#clipPath2)" stroke-linecap="butt"/>
      <path fill="none" stroke-miterlimit="1.45" d="M200.7934 78.0536 L130.2555 200.229" clip-path="url(#clipPath2)" stroke-linecap="butt"/>
      <path fill="none" stroke-miterlimit="1.45" d="M131.1705 201.144 L173.1446 176.9103" clip-path="url(#clipPath2)" stroke-linecap="butt"/>
      <path fill="none" stroke-miterlimit="1.45" d="M127.2377 200.6263 L4.2968 77.6853" clip-path="url(#clipPath2)" stroke-linecap="butt"/>
      <path fill="none" stroke-miterlimit="1.45" d="M127.7555 200.229 L30.4838 31.7494" clip-path="url(#clipPath2)" stroke-linecap="butt"/>
      <path fill="none" stroke-miterlimit="1.45" d="M199.8784 130.606 L77.703 201.144" clip-path="url(#clipPath2)" stroke-linecap="butt"/>
      <path fill="none" stroke-miterlimit="1.45" d="M75.538 5.3506 L75.538 199.894" clip-path="url(#clipPath2)" stroke-linecap="butt"/>
      <path fill="none" stroke-miterlimit="1.45" d="M128.3584 5.2654 L76.185 199.9792" clip-path="url(#clipPath2)" stroke-linecap="butt"/>
      <path fill="none" stroke-miterlimit="1.45" d="M174.0597 31.7494 L76.788 200.229" clip-path="url(#clipPath2)" stroke-linecap="butt"/>
      <path fill="none" stroke-miterlimit="1.45" d="M200.2757 77.6563 L77.3057 200.6263" clip-path="url(#clipPath2)" stroke-linecap="butt"/>
      <path fill="none" stroke-miterlimit="1.45" d="M172.8949 176.3073 L77.9528 201.747" clip-path="url(#clipPath2)" stroke-linecap="butt"/>
      <path fill="none" stroke-miterlimit="1.45" d="M78.038 202.394 L126.5055 202.394" clip-path="url(#clipPath2)" stroke-linecap="butt"/>
      <path fill="none" stroke-miterlimit="1.45" d="M74.288 200.229 L3.75 78.0536" clip-path="url(#clipPath2)" stroke-linecap="butt"/>
      <path fill="none" stroke-miterlimit="1.45" d="M74.8909 199.9792 L29.8808 31.9992" clip-path="url(#clipPath2)" stroke-linecap="butt"/>
      <path fill="none" stroke-miterlimit="1.45" d="M199.6286 130.0031 L31.6486 175.0132" clip-path="url(#clipPath2)" stroke-linecap="butt"/>
      <path fill="none" stroke-miterlimit="1.45" d="M74.8909 5.2654 L29.8808 173.2455" clip-path="url(#clipPath2)" stroke-linecap="butt"/>
      <path fill="none" stroke-miterlimit="1.45" d="M127.7555 5.0156 L30.4838 173.4952" clip-path="url(#clipPath2)" stroke-linecap="butt"/>
      <path fill="none" stroke-miterlimit="1.45" d="M173.5419 31.3521 L31.0015 173.8925" clip-path="url(#clipPath2)" stroke-linecap="butt"/>
      <path fill="none" stroke-miterlimit="1.45" d="M199.8784 77.1385 L31.3988 174.4103" clip-path="url(#clipPath2)" stroke-linecap="butt"/>
      <path fill="none" stroke-miterlimit="1.45" d="M172.8097 175.6603 L31.7338 175.6603" clip-path="url(#clipPath2)" stroke-linecap="butt"/>
      <path fill="none" stroke-miterlimit="1.45" d="M126.5907 201.747 L31.6486 176.3073" clip-path="url(#clipPath2)" stroke-linecap="butt"/>
      <path fill="none" stroke-miterlimit="1.45" d="M31.3988 176.9103 L73.3729 201.144" clip-path="url(#clipPath2)" stroke-linecap="butt"/>
      <path fill="none" stroke-miterlimit="1.45" d="M28.5867 173.2455 L3.147 78.3034" clip-path="url(#clipPath2)" stroke-linecap="butt"/>
      <path fill="none" stroke-miterlimit="1.45" d="M29.2338 173.1603 L29.2338 32.0843" clip-path="url(#clipPath2)" stroke-linecap="butt"/>
      <path fill="none" stroke-miterlimit="1.45" d="M2.5 78.3885 L2.5 126.8561" clip-path="url(#clipPath2)" stroke-linecap="butt"/>
      <path fill="none" stroke-miterlimit="1.45" d="M74.288 5.0156 L3.75 127.191" clip-path="url(#clipPath2)" stroke-linecap="butt"/>
      <path fill="none" stroke-miterlimit="1.45" d="M127.2377 4.6184 L4.2678 127.5883" clip-path="url(#clipPath2)" stroke-linecap="butt"/>
      <path fill="none" stroke-miterlimit="1.45" d="M173.1446 30.8343 L4.6651 128.106" clip-path="url(#clipPath2)" stroke-linecap="butt"/>
      <path fill="none" stroke-miterlimit="1.45" d="M199.6286 76.5356 L4.9148 128.709" clip-path="url(#clipPath2)" stroke-linecap="butt"/>
      <path fill="none" stroke-miterlimit="1.45" d="M199.5434 129.356 L5 129.356" clip-path="url(#clipPath2)" stroke-linecap="butt"/>
      <path fill="none" stroke-miterlimit="1.45" d="M172.8949 175.0132 L4.9148 130.0031" clip-path="url(#clipPath2)" stroke-linecap="butt"/>
      <path fill="none" stroke-miterlimit="1.45" d="M126.8404 201.144 L4.6651 130.606" clip-path="url(#clipPath2)" stroke-linecap="butt"/>
      <path fill="none" stroke-miterlimit="1.45" d="M73.7702 200.6263 L4.2678 131.1238" clip-path="url(#clipPath2)" stroke-linecap="butt"/>
      <path fill="none" stroke-miterlimit="1.45" d="M3.75 131.5211 L27.9838 173.4952" clip-path="url(#clipPath2)" stroke-linecap="butt"/>
    </g>
  </g>
</svg>
