<?xml version="1.0" encoding="UTF-8"?><svg xmlns="http://www.w3.org/2000/svg" xmlns:xlink="http://www.w3.org/1999/xlink" fill-opacity="1" color-rendering="auto" color-interpolation="auto" text-rendering="auto" stroke="black" stroke-linecap="square" width="500" stroke-miterlimit="10" shape-rendering="auto" stroke-opacity="1" fill="black" stroke-dasharray="none" font-weight="normal" stroke-width="1" height="500" font-family="'Dialog'" font-style="normal" stroke-linejoin="miter" font-size="12px" stroke-dashoffset="0" image-rendering="auto">
  <!--Generated by ySVG 2.5-->
  <defs id="genericDefs"/>
  <g>
    <defs id="defs1">
      <clipPath clipPathUnits="userSpaceOnUse" id="clipPath1">
        <path d="M0 0 L500 0 L500 500 L0 500 L0 0 Z"/>
      </clipPath>
      <clipPath clipPathUnits="userSpaceOnUse" id="clipPath2">
        <path d="M-15 -15 L206 -15 L206 206 L-15 206 L-15 -15 Z"/>
      </clipPath>
    </defs>
    <g fill="white" text-rendering="geometricPrecision" shape-rendering="geometricPrecision" transform="scale(2.2624,2.2624) translate(15,15)" stroke="white">
      <rect x="-15" width="221" height="221" y="-15" clip-path="url(#clipPath2)" stroke="none"/>
    </g>
    <g fill="white" text-rendering="geometricPrecision" shape-rendering="geometricPrecision" transform="matrix(2.2624,0,0,2.2624,33.9367,33.9367)" stroke="white">
      <circle r="2.5" clip-path="url(#clipPath2)" cx="187.6736" cy="76.6702" stroke="none"/>
    </g>
    <g text-rendering="geometricPrecision" stroke-miterlimit="1.45" shape-rendering="geometricPrecision" transform="matrix(2.2624,0,0,2.2624,33.9367,33.9367)" stroke-linecap="butt">
      <circle fill="none" r="2.5" clip-path="url(#clipPath2)" cx="187.6736" cy="76.6702"/>
    </g>
    <g fill="white" text-rendering="geometricPrecision" shape-rendering="geometricPrecision" transform="matrix(2.2624,0,0,2.2624,33.9367,33.9367)" stroke="white">
      <circle r="2.5" clip-path="url(#clipPath2)" cx="113.5035" cy="187.6736" stroke="none"/>
    </g>
    <g text-rendering="geometricPrecision" stroke-miterlimit="1.45" shape-rendering="geometricPrecision" transform="matrix(2.2624,0,0,2.2624,33.9367,33.9367)" stroke-linecap="butt">
      <circle fill="none" r="2.5" clip-path="url(#clipPath2)" cx="113.5035" cy="187.6736"/>
    </g>
    <g fill="white" text-rendering="geometricPrecision" shape-rendering="geometricPrecision" transform="matrix(2.2624,0,0,2.2624,33.9367,33.9367)" stroke="white">
      <circle r="2.5" clip-path="url(#clipPath2)" cx="173.5781" cy="42.6406" stroke="none"/>
    </g>
    <g text-rendering="geometricPrecision" stroke-miterlimit="1.45" shape-rendering="geometricPrecision" transform="matrix(2.2624,0,0,2.2624,33.9367,33.9367)" stroke-linecap="butt">
      <circle fill="none" r="2.5" clip-path="url(#clipPath2)" cx="173.5781" cy="42.6406"/>
    </g>
    <g fill="white" text-rendering="geometricPrecision" shape-rendering="geometricPrecision" transform="matrix(2.2624,0,0,2.2624,33.9367,33.9367)" stroke="white">
      <circle r="2.5" clip-path="url(#clipPath2)" cx="76.6702" cy="187.6736" stroke="none"/>
    </g>
    <g text-rendering="geometricPrecision" stroke-miterlimit="1.45" shape-rendering="geometricPrecision" transform="matrix(2.2624,0,0,2.2624,33.9367,33.9367)" stroke-linecap="butt">
      <circle fill="none" r="2.5" clip-path="url(#clipPath2)" cx="76.6702" cy="187.6736"/>
    </g>
    <g fill="white" text-rendering="geometricPrecision" shape-rendering="geometricPrecision" transform="matrix(2.2624,0,0,2.2624,33.9367,33.9367)" stroke="white">
      <circle r="2.5" clip-path="url(#clipPath2)" cx="42.6406" cy="173.5781" stroke="none"/>
    </g>
    <g text-rendering="geometricPrecision" stroke-miterlimit="1.45" shape-rendering="geometricPrecision" transform="matrix(2.2624,0,0,2.2624,33.9367,33.9367)" stroke-linecap="butt">
      <circle fill="none" r="2.5" clip-path="url(#clipPath2)" cx="42.6406" cy="173.5781"/>
    </g>
    <g fill="white" text-rendering="geometricPrecision" shape-rendering="geometricPrecision" transform="matrix(2.2624,0,0,2.2624,33.9367,33.9367)" stroke="white">
      <circle r="2.5" clip-path="url(#clipPath2)" cx="147.533" cy="16.5955" stroke="none"/>
    </g>
    <g text-rendering="geometricPrecision" stroke-miterlimit="1.45" shape-rendering="geometricPrecision" transform="matrix(2.2624,0,0,2.2624,33.9367,33.9367)" stroke-linecap="butt">
      <circle fill="none" r="2.5" clip-path="url(#clipPath2)" cx="147.533" cy="16.5955"/>
    </g>
    <g fill="white" text-rendering="geometricPrecision" shape-rendering="geometricPrecision" transform="matrix(2.2624,0,0,2.2624,33.9367,33.9367)" stroke="white">
      <circle r="2.5" clip-path="url(#clipPath2)" cx="147.533" cy="173.5781" stroke="none"/>
    </g>
    <g text-rendering="geometricPrecision" stroke-miterlimit="1.45" shape-rendering="geometricPrecision" transform="matrix(2.2624,0,0,2.2624,33.9367,33.9367)" stroke-linecap="butt">
      <circle fill="none" r="2.5" clip-path="url(#clipPath2)" cx="147.533" cy="173.5781"/>
    </g>
    <g fill="white" text-rendering="geometricPrecision" shape-rendering="geometricPrecision" transform="matrix(2.2624,0,0,2.2624,33.9367,33.9367)" stroke="white">
      <circle r="2.5" clip-path="url(#clipPath2)" cx="173.5781" cy="147.533" stroke="none"/>
    </g>
    <g text-rendering="geometricPrecision" stroke-miterlimit="1.45" shape-rendering="geometricPrecision" transform="matrix(2.2624,0,0,2.2624,33.9367,33.9367)" stroke-linecap="butt">
      <circle fill="none" r="2.5" clip-path="url(#clipPath2)" cx="173.5781" cy="147.533"/>
    </g>
    <g fill="white" text-rendering="geometricPrecision" shape-rendering="geometricPrecision" transform="matrix(2.2624,0,0,2.2624,33.9367,33.9367)" stroke="white">
      <circle r="2.5" clip-path="url(#clipPath2)" cx="187.6736" cy="113.5035" stroke="none"/>
    </g>
    <g text-rendering="geometricPrecision" stroke-miterlimit="1.45" shape-rendering="geometricPrecision" transform="matrix(2.2624,0,0,2.2624,33.9367,33.9367)" stroke-linecap="butt">
      <circle fill="none" r="2.5" clip-path="url(#clipPath2)" cx="187.6736" cy="113.5035"/>
    </g>
    <g fill="white" text-rendering="geometricPrecision" shape-rendering="geometricPrecision" transform="matrix(2.2624,0,0,2.2624,33.9367,33.9367)" stroke="white">
      <circle r="2.5" clip-path="url(#clipPath2)" cx="16.5955" cy="147.533" stroke="none"/>
    </g>
    <g text-rendering="geometricPrecision" stroke-miterlimit="1.45" shape-rendering="geometricPrecision" transform="matrix(2.2624,0,0,2.2624,33.9367,33.9367)" stroke-linecap="butt">
      <circle fill="none" r="2.5" clip-path="url(#clipPath2)" cx="16.5955" cy="147.533"/>
    </g>
    <g fill="white" text-rendering="geometricPrecision" shape-rendering="geometricPrecision" transform="matrix(2.2624,0,0,2.2624,33.9367,33.9367)" stroke="white">
      <circle r="2.5" clip-path="url(#clipPath2)" cx="113.5035" cy="2.5" stroke="none"/>
    </g>
    <g text-rendering="geometricPrecision" stroke-miterlimit="1.45" shape-rendering="geometricPrecision" transform="matrix(2.2624,0,0,2.2624,33.9367,33.9367)" stroke-linecap="butt">
      <circle fill="none" r="2.5" clip-path="url(#clipPath2)" cx="113.5035" cy="2.5"/>
    </g>
    <g fill="white" text-rendering="geometricPrecision" shape-rendering="geometricPrecision" transform="matrix(2.2624,0,0,2.2624,33.9367,33.9367)" stroke="white">
      <circle r="2.5" clip-path="url(#clipPath2)" cx="42.6406" cy="16.5955" stroke="none"/>
    </g>
    <g text-rendering="geometricPrecision" stroke-miterlimit="1.45" shape-rendering="geometricPrecision" transform="matrix(2.2624,0,0,2.2624,33.9367,33.9367)" stroke-linecap="butt">
      <circle fill="none" r="2.5" clip-path="url(#clipPath2)" cx="42.6406" cy="16.5955"/>
    </g>
    <g fill="white" text-rendering="geometricPrecision" shape-rendering="geometricPrecision" transform="matrix(2.2624,0,0,2.2624,33.9367,33.9367)" stroke="white">
      <circle r="2.5" clip-path="url(#clipPath2)" cx="16.5955" cy="42.6406" stroke="none"/>
    </g>
    <g text-rendering="geometricPrecision" stroke-miterlimit="1.45" shape-rendering="geometricPrecision" transform="matrix(2.2624,0,0,2.2624,33.9367,33.9367)" stroke-linecap="butt">
      <circle fill="none" r="2.5" clip-path="url(#clipPath2)" cx="16.5955" cy="42.6406"/>
    </g>
    <g fill="white" text-rendering="geometricPrecision" shape-rendering="geometricPrecision" transform="matrix(2.2624,0,0,2.2624,33.9367,33.9367)" stroke="white">
      <circle r="2.5" clip-path="url(#clipPath2)" cx="2.5" cy="76.6702" stroke="none"/>
    </g>
    <g text-rendering="geometricPrecision" stroke-miterlimit="1.45" shape-rendering="geometricPrecision" transform="matrix(2.2624,0,0,2.2624,33.9367,33.9367)" stroke-linecap="butt">
      <circle fill="none" r="2.5" clip-path="url(#clipPath2)" cx="2.5" cy="76.6702"/>
    </g>
    <g fill="white" text-rendering="geometricPrecision" shape-rendering="geometricPrecision" transform="matrix(2.2624,0,0,2.2624,33.9367,33.9367)" stroke="white">
      <circle r="2.5" clip-path="url(#clipPath2)" cx="2.5" cy="113.5035" stroke="none"/>
    </g>
    <g text-rendering="geometricPrecision" stroke-miterlimit="1.45" shape-rendering="geometricPrecision" transform="matrix(2.2624,0,0,2.2624,33.9367,33.9367)" stroke-linecap="butt">
      <circle fill="none" r="2.5" clip-path="url(#clipPath2)" cx="2.5" cy="113.5035"/>
    </g>
    <g fill="white" text-rendering="geometricPrecision" shape-rendering="geometricPrecision" transform="matrix(2.2624,0,0,2.2624,33.9367,33.9367)" stroke="white">
      <circle r="2.5" clip-path="url(#clipPath2)" cx="76.6702" cy="2.5" stroke="none"/>
    </g>
    <g text-rendering="geometricPrecision" stroke-miterlimit="1.45" shape-rendering="geometricPrecision" transform="matrix(2.2624,0,0,2.2624,33.9367,33.9367)" stroke-linecap="butt">
      <circle fill="none" r="2.5" clip-path="url(#clipPath2)" cx="76.6702" cy="2.5"/>
      <path fill="none" d="M114.0473 185.2245 L122.6331 146.561 L127.3782 132.5972 L133.4023 121.294 L141.5748 111.3505 L152.7647 101.4659 L185.6623 78.0988" clip-path="url(#clipPath2)"/>
      <path fill="none" d="M79.1702 187.6736 L111.0035 187.6736" clip-path="url(#clipPath2)"/>
      <path fill="none" d="M111.4461 186.3176 L95.0229 175.4928 L88.0499 171.9796 L81.4812 169.9643 L74.4863 169.2816 L66.2349 169.7665 L45.083 173.1836" clip-path="url(#clipPath2)" stroke="gray"/>
      <path fill="none" d="M44.9503 174.5348 L74.3605 186.7169" clip-path="url(#clipPath2)"/>
      <path fill="none" d="M171.8104 40.8728 L149.3008 18.3633" clip-path="url(#clipPath2)"/>
      <path fill="none" d="M115.8132 186.7169 L145.2233 174.5348" clip-path="url(#clipPath2)"/>
      <path fill="none" d="M145.0375 173.1025 L125.1173 169.3057 L117.1605 168.7056 L110.2638 169.3499 L103.5969 171.4036 L96.3292 175.032 L78.782 186.3156" clip-path="url(#clipPath2)" stroke="gray"/>
      <path fill="none" d="M149.3008 171.8104 L171.8104 149.3008" clip-path="url(#clipPath2)"/>
      <path fill="none" d="M186.2259 78.7452 L174.6698 95.3091 L170.9508 102.3217 L168.8669 108.9036 L168.2528 115.8853 L168.9435 124.0971 L173.0984 145.1071" clip-path="url(#clipPath2)" stroke="gray"/>
      <path fill="none" d="M171.1181 147.8385 L149.8134 150.4843 L141.8775 152.555 L135.634 155.6494 L130.3788 160.2381 L125.408 166.7915 L114.7358 185.512" clip-path="url(#clipPath2)" stroke="gray"/>
      <path fill="none" d="M174.5348 145.2233 L186.7169 115.8132" clip-path="url(#clipPath2)"/>
      <path fill="none" d="M44.5849 171.9306 L81.6786 140.4988 L96.2537 130.2343 L109.7989 123.2146 L124.0139 118.7357 L140.5983 116.0935 L185.1452 113.6426" clip-path="url(#clipPath2)"/>
      <path fill="none" d="M187.6736 111.0035 L187.6736 79.1702" clip-path="url(#clipPath2)"/>
      <path fill="none" d="M75.2498 185.6551 L62.9489 168.1739 L57.524 161.9661 L52.1174 157.4926 L46.0253 154.283 L38.5436 151.8668 L19.0389 148.0155" clip-path="url(#clipPath2)" stroke="gray"/>
      <path fill="none" d="M18.3633 149.3008 L40.8728 171.8104" clip-path="url(#clipPath2)"/>
      <path fill="none" d="M18.8558 146.461 L67.4652 123.4059 L102.2424 107.982 L136.9657 94.6179 L185.3215 77.5027" clip-path="url(#clipPath2)"/>
      <path fill="none" d="M171.0977 42.4041 L145.6662 39.9795 L136.6935 37.9814 L130.1044 34.9112 L125.1948 30.2983 L121.2608 23.6724 L114.3671 4.8571" clip-path="url(#clipPath2)" stroke="gray"/>
      <path fill="none" d="M115.8132 3.4567 L145.2233 15.6388" clip-path="url(#clipPath2)"/>
      <path fill="none" d="M111.4712 3.9102 L93.8709 16.123 L86.6099 19.9968 L79.9452 22.1323 L73.0463 22.6948 L65.0829 21.8493 L45.0514 17.1599" clip-path="url(#clipPath2)" stroke="gray"/>
      <path fill="none" d="M40.8728 18.3633 L18.3633 40.8728" clip-path="url(#clipPath2)"/>
      <path fill="none" d="M171.0913 42.8491 L123.6464 46.8275 L90.6501 48.2231 L59.8722 46.8275 L19.089 42.8818" clip-path="url(#clipPath2)"/>
      <path fill="none" d="M15.6388 44.9503 L3.4567 74.3605" clip-path="url(#clipPath2)"/>
      <path fill="none" d="M111.8432 4.3244 L89.5573 28.8121 L79.8851 37.8528 L70.0124 45.3089 L58.6384 52.0494 L44.4622 58.9437 L4.8358 75.6834" clip-path="url(#clipPath2)"/>
      <path fill="none" d="M41.8423 18.951 L35.4701 37.7538 L28.8986 51.0644 L19.1629 62.1592 L4.3551 75.0547" clip-path="url(#clipPath2)" stroke="gray"/>
      <path fill="none" d="M2.5 79.1702 L2.5 111.0035" clip-path="url(#clipPath2)"/>
      <path fill="none" d="M145.5786 18.1943 L108.2912 48.6974 L80.1029 69.4926 L49.3715 88.0662 L4.72 112.2987" clip-path="url(#clipPath2)"/>
      <path fill="none" d="M17.3979 45.0007 L23.3303 62.4499 L24.546 69.7551 L24.1069 76.4346 L21.848 83.3187 L17.604 91.238 L3.9012 111.4378" clip-path="url(#clipPath2)" stroke="gray"/>
      <path fill="none" d="M145.2314 17.4631 L124.4261 25.3053 L116.2965 27.0148 L109.3422 26.7403 L102.7329 24.3168 L95.638 19.579 L78.5595 4.2012" clip-path="url(#clipPath2)" stroke="gray"/>
      <path fill="none" d="M79.1702 2.5 L111.0035 2.5" clip-path="url(#clipPath2)"/>
      <path fill="none" d="M74.3605 3.4567 L44.9503 15.6388" clip-path="url(#clipPath2)"/>
      <path fill="none" d="M76.1668 4.9394 L69.4103 37.682 L65.1326 50.1632 L59.2643 60.9722 L50.936 71.41 L39.2787 82.7772 L4.4036 111.9132" clip-path="url(#clipPath2)"/>
      <path fill="none" d="M75.1939 4.4723 L63.4097 20.2164 L58.1 25.9783 L52.7318 30.3032 L39.0044 36.5235 L19.0027 41.9835" clip-path="url(#clipPath2)" stroke="gray"/>
    </g>
  </g>
</svg>
