<?xml version="1.0" encoding="UTF-8"?><svg xmlns="http://www.w3.org/2000/svg" xmlns:xlink="http://www.w3.org/1999/xlink" fill-opacity="1" color-rendering="auto" color-interpolation="auto" text-rendering="auto" stroke="black" stroke-linecap="square" width="1203" stroke-miterlimit="10" shape-rendering="auto" stroke-opacity="1" fill="black" stroke-dasharray="none" font-weight="normal" stroke-width="1" height="1171" font-family="'Dialog'" font-style="normal" stroke-linejoin="miter" font-size="12px" stroke-dashoffset="0" image-rendering="auto">
  <!--Generated by ySVG 2.5-->
  <defs id="genericDefs"/>
  <g>
    <defs id="defs1">
      <clipPath clipPathUnits="userSpaceOnUse" id="clipPath1">
        <path d="M0 0 L1203 0 L1203 1171 L0 1171 L0 0 Z"/>
      </clipPath>
      <clipPath clipPathUnits="userSpaceOnUse" id="clipPath2">
        <path d="M-15 -15 L1188 -15 L1188 1156 L-15 1156 L-15 -15 Z"/>
      </clipPath>
    </defs>
    <g fill="white" text-rendering="geometricPrecision" shape-rendering="geometricPrecision" transform="translate(15,15)" stroke="white">
      <rect x="-15" width="1203" height="1171" y="-15" clip-path="url(#clipPath2)" stroke="none"/>
    </g>
    <g fill="rgb(51,153,102)" text-rendering="geometricPrecision" shape-rendering="geometricPrecision" transform="matrix(1,0,0,1,15,15)" stroke="rgb(51,153,102)">
      <circle r="24.5" clip-path="url(#clipPath2)" cx="269.5" cy="906.5" stroke="none"/>
    </g>
    <g stroke-linecap="butt" transform="matrix(1,0,0,1,15,15)" fill="white" text-rendering="geometricPrecision" font-family="sans-serif" shape-rendering="geometricPrecision" stroke="white" stroke-miterlimit="1.45">
      <text x="255.833" xml:space="preserve" y="903.8633" clip-path="url(#clipPath2)" stroke="none">Frost</text>
      <text x="263.8311" xml:space="preserve" y="918.5645" clip-path="url(#clipPath2)" stroke="none">IV</text>
      <circle fill="none" r="24.5" clip-path="url(#clipPath2)" cx="269.5" cy="906.5" stroke="black"/>
    </g>
    <g fill="rgb(51,153,102)" text-rendering="geometricPrecision" shape-rendering="geometricPrecision" transform="matrix(1,0,0,1,15,15)" stroke="rgb(51,153,102)">
      <circle r="24.5" clip-path="url(#clipPath2)" cx="239.5" cy="609.5" stroke="none"/>
    </g>
    <g stroke-linecap="butt" transform="matrix(1,0,0,1,15,15)" fill="white" text-rendering="geometricPrecision" font-family="sans-serif" shape-rendering="geometricPrecision" stroke="white" stroke-miterlimit="1.45">
      <text x="219.1562" xml:space="preserve" y="614.2139" clip-path="url(#clipPath2)" stroke="none">Vervain</text>
      <circle fill="none" r="24.5" clip-path="url(#clipPath2)" cx="239.5" cy="609.5" stroke="black"/>
    </g>
    <g fill="rgb(51,153,102)" text-rendering="geometricPrecision" shape-rendering="geometricPrecision" transform="matrix(1,0,0,1,15,15)" stroke="rgb(51,153,102)">
      <circle r="24.5" clip-path="url(#clipPath2)" cx="286.5" cy="716.5" stroke="none"/>
    </g>
    <g stroke-linecap="butt" transform="matrix(1,0,0,1,15,15)" fill="white" text-rendering="geometricPrecision" font-family="sans-serif" shape-rendering="geometricPrecision" stroke="white" stroke-miterlimit="1.45">
      <text x="266.8301" xml:space="preserve" y="721.2139" clip-path="url(#clipPath2)" stroke="none">Komarr</text>
      <circle fill="none" r="24.5" clip-path="url(#clipPath2)" cx="286.5" cy="716.5" stroke="black"/>
    </g>
    <g fill="rgb(51,153,102)" text-rendering="geometricPrecision" shape-rendering="geometricPrecision" transform="matrix(1,0,0,1,15,15)" stroke="rgb(51,153,102)">
      <circle r="24.5" clip-path="url(#clipPath2)" cx="129.5" cy="676.5" stroke="none"/>
    </g>
    <g stroke-linecap="butt" transform="matrix(1,0,0,1,15,15)" fill="white" text-rendering="geometricPrecision" font-family="sans-serif" shape-rendering="geometricPrecision" stroke="white" stroke-miterlimit="1.45">
      <text x="106.4932" xml:space="preserve" y="681.2139" clip-path="url(#clipPath2)" stroke="none">Barrayar</text>
      <circle fill="none" r="24.5" clip-path="url(#clipPath2)" cx="129.5" cy="676.5" stroke="black"/>
    </g>
    <g fill="maroon" text-rendering="geometricPrecision" shape-rendering="geometricPrecision" transform="matrix(1,0,0,1,15,15)" stroke="maroon">
      <circle r="24.5" clip-path="url(#clipPath2)" cx="135.5" cy="796.5" stroke="none"/>
    </g>
    <g stroke-linecap="butt" transform="matrix(1,0,0,1,15,15)" fill="white" text-rendering="geometricPrecision" font-family="sans-serif" shape-rendering="geometricPrecision" stroke="white" stroke-miterlimit="1.45">
      <text x="127.8301" xml:space="preserve" y="793.8633" clip-path="url(#clipPath2)" stroke="none">No</text>
      <text x="119.1582" xml:space="preserve" y="808.5645" clip-path="url(#clipPath2)" stroke="none">where</text>
      <circle fill="none" r="24.5" clip-path="url(#clipPath2)" cx="135.5" cy="796.5" stroke="black"/>
    </g>
    <g fill="maroon" text-rendering="geometricPrecision" shape-rendering="geometricPrecision" transform="matrix(1,0,0,1,15,15)" stroke="maroon">
      <circle r="24.5" clip-path="url(#clipPath2)" cx="248.5" cy="808.5" stroke="none"/>
    </g>
    <g stroke-linecap="butt" transform="matrix(1,0,0,1,15,15)" fill="white" text-rendering="geometricPrecision" font-family="sans-serif" shape-rendering="geometricPrecision" stroke="white" stroke-miterlimit="1.45">
      <text x="239.8281" xml:space="preserve" y="813.2139" clip-path="url(#clipPath2)" stroke="none">Pol</text>
      <circle fill="none" r="24.5" clip-path="url(#clipPath2)" cx="248.5" cy="808.5" stroke="black"/>
    </g>
    <g fill="maroon" text-rendering="geometricPrecision" shape-rendering="geometricPrecision" transform="matrix(1,0,0,1,15,15)" stroke="maroon">
      <circle r="24.5" clip-path="url(#clipPath2)" cx="568.5" cy="24.5" stroke="none"/>
    </g>
    <g stroke-linecap="butt" transform="matrix(1,0,0,1,15,15)" fill="white" text-rendering="geometricPrecision" font-family="sans-serif" shape-rendering="geometricPrecision" stroke="white" stroke-miterlimit="1.45">
      <text x="546.1582" xml:space="preserve" y="29.2139" clip-path="url(#clipPath2)" stroke="none">Toranira</text>
      <circle fill="none" r="24.5" clip-path="url(#clipPath2)" cx="568.5" cy="24.5" stroke="black"/>
    </g>
    <g fill="blue" text-rendering="geometricPrecision" shape-rendering="geometricPrecision" transform="matrix(1,0,0,1,15,15)" stroke="blue">
      <circle r="24.5" clip-path="url(#clipPath2)" cx="24.5" cy="423.5" stroke="none"/>
    </g>
    <g stroke-linecap="butt" transform="matrix(1,0,0,1,15,15)" fill="white" text-rendering="geometricPrecision" font-family="sans-serif" shape-rendering="geometricPrecision" stroke="white" stroke-miterlimit="1.45">
      <text x="10.4932" xml:space="preserve" y="420.8633" clip-path="url(#clipPath2)" stroke="none">Delta</text>
      <text x="3.1543" xml:space="preserve" y="435.5645" clip-path="url(#clipPath2)" stroke="none">Pavonis</text>
      <circle fill="none" r="24.5" clip-path="url(#clipPath2)" cx="24.5" cy="423.5" stroke="black"/>
    </g>
    <g fill="blue" text-rendering="geometricPrecision" shape-rendering="geometricPrecision" transform="matrix(1,0,0,1,15,15)" stroke="blue">
      <circle r="24.5" clip-path="url(#clipPath2)" cx="165.5" cy="461.5" stroke="none"/>
    </g>
    <g stroke-linecap="butt" transform="matrix(1,0,0,1,15,15)" fill="white" text-rendering="geometricPrecision" font-family="sans-serif" shape-rendering="geometricPrecision" stroke="white" stroke-miterlimit="1.45">
      <text x="157.165" xml:space="preserve" y="458.8633" clip-path="url(#clipPath2)" stroke="none">Mu</text>
      <text x="152.8262" xml:space="preserve" y="473.5645" clip-path="url(#clipPath2)" stroke="none">Ceta</text>
      <circle fill="none" r="24.5" clip-path="url(#clipPath2)" cx="165.5" cy="461.5" stroke="black"/>
    </g>
    <g fill="blue" text-rendering="geometricPrecision" shape-rendering="geometricPrecision" transform="matrix(1,0,0,1,15,15)" stroke="blue">
      <circle r="24.5" clip-path="url(#clipPath2)" cx="232.5" cy="209.5" stroke="none"/>
    </g>
    <g stroke-linecap="butt" transform="matrix(1,0,0,1,15,15)" fill="white" text-rendering="geometricPrecision" font-family="sans-serif" shape-rendering="geometricPrecision" stroke="white" stroke-miterlimit="1.45">
      <text x="215.4932" xml:space="preserve" y="206.8633" clip-path="url(#clipPath2)" stroke="none">Sigma</text>
      <text x="219.8262" xml:space="preserve" y="221.5645" clip-path="url(#clipPath2)" stroke="none">Ceta</text>
      <circle fill="none" r="24.5" clip-path="url(#clipPath2)" cx="232.5" cy="209.5" stroke="black"/>
    </g>
    <g fill="blue" text-rendering="geometricPrecision" shape-rendering="geometricPrecision" transform="matrix(1,0,0,1,15,15)" stroke="blue">
      <circle r="24.5" clip-path="url(#clipPath2)" cx="138.5" cy="100.5" stroke="none"/>
    </g>
    <g stroke-linecap="butt" transform="matrix(1,0,0,1,15,15)" fill="white" text-rendering="geometricPrecision" font-family="sans-serif" shape-rendering="geometricPrecision" stroke="white" stroke-miterlimit="1.45">
      <text x="121.4932" xml:space="preserve" y="97.8633" clip-path="url(#clipPath2)" stroke="none">Sigma</text>
      <text x="114.8252" xml:space="preserve" y="112.5645" clip-path="url(#clipPath2)" stroke="none">Draconis</text>
      <circle fill="none" r="24.5" clip-path="url(#clipPath2)" cx="138.5" cy="100.5" stroke="black"/>
    </g>
    <g fill="blue" text-rendering="geometricPrecision" shape-rendering="geometricPrecision" transform="matrix(1,0,0,1,15,15)" stroke="blue">
      <circle r="24.5" clip-path="url(#clipPath2)" cx="464.5" cy="450.5" stroke="none"/>
    </g>
    <g stroke-linecap="butt" transform="matrix(1,0,0,1,15,15)" fill="white" text-rendering="geometricPrecision" font-family="sans-serif" shape-rendering="geometricPrecision" stroke="white" stroke-miterlimit="1.45">
      <text x="452.1572" xml:space="preserve" y="447.8633" clip-path="url(#clipPath2)" stroke="none">Beta</text>
      <text x="445.1582" xml:space="preserve" y="462.5645" clip-path="url(#clipPath2)" stroke="none">Canum</text>
      <circle fill="none" r="24.5" clip-path="url(#clipPath2)" cx="464.5" cy="450.5" stroke="black"/>
    </g>
    <g fill="blue" text-rendering="geometricPrecision" shape-rendering="geometricPrecision" transform="matrix(1,0,0,1,15,15)" stroke="blue">
      <circle r="24.5" clip-path="url(#clipPath2)" cx="418.5" cy="334.5" stroke="none"/>
    </g>
    <g stroke-linecap="butt" transform="matrix(1,0,0,1,15,15)" fill="white" text-rendering="geometricPrecision" font-family="sans-serif" shape-rendering="geometricPrecision" stroke="white" stroke-miterlimit="1.45">
      <text x="413.165" xml:space="preserve" y="331.8633" clip-path="url(#clipPath2)" stroke="none">Xi</text>
      <text x="405.8262" xml:space="preserve" y="346.5645" clip-path="url(#clipPath2)" stroke="none">Ceta</text>
      <circle fill="none" r="24.5" clip-path="url(#clipPath2)" cx="418.5" cy="334.5" stroke="black"/>
    </g>
    <g fill="blue" text-rendering="geometricPrecision" shape-rendering="geometricPrecision" transform="matrix(1,0,0,1,15,15)" stroke="blue">
      <circle r="24.5" clip-path="url(#clipPath2)" cx="301.5" cy="527.5" stroke="none"/>
    </g>
    <g stroke-linecap="butt" transform="matrix(1,0,0,1,15,15)" fill="white" text-rendering="geometricPrecision" font-family="sans-serif" shape-rendering="geometricPrecision" stroke="white" stroke-miterlimit="1.45">
      <text x="290.4932" xml:space="preserve" y="524.8633" clip-path="url(#clipPath2)" stroke="none">Rho</text>
      <text x="288.8262" xml:space="preserve" y="539.5645" clip-path="url(#clipPath2)" stroke="none">Ceta</text>
      <circle fill="none" r="24.5" clip-path="url(#clipPath2)" cx="301.5" cy="527.5" stroke="black"/>
    </g>
    <g fill="blue" text-rendering="geometricPrecision" shape-rendering="geometricPrecision" transform="matrix(1,0,0,1,15,15)" stroke="blue">
      <circle r="24.5" clip-path="url(#clipPath2)" cx="372.5" cy="216.5" stroke="none"/>
    </g>
    <g stroke-linecap="butt" transform="matrix(1,0,0,1,15,15)" fill="white" text-rendering="geometricPrecision" font-family="sans-serif" shape-rendering="geometricPrecision" stroke="white" stroke-miterlimit="1.45">
      <text x="356.4951" xml:space="preserve" y="221.2139" clip-path="url(#clipPath2)" stroke="none">Ola III</text>
      <circle fill="none" r="24.5" clip-path="url(#clipPath2)" cx="372.5" cy="216.5" stroke="black"/>
    </g>
    <g fill="blue" text-rendering="geometricPrecision" shape-rendering="geometricPrecision" transform="matrix(1,0,0,1,15,15)" stroke="blue">
      <circle r="24.5" clip-path="url(#clipPath2)" cx="280.5" cy="355.5" stroke="none"/>
    </g>
    <g stroke-linecap="butt" transform="matrix(1,0,0,1,15,15)" fill="white" text-rendering="geometricPrecision" font-family="sans-serif" shape-rendering="geometricPrecision" stroke="white" stroke-miterlimit="1.45">
      <text x="257.1533" xml:space="preserve" y="352.8633" clip-path="url(#clipPath2)" stroke="none">Eta Ceta</text>
      <text x="263.165" xml:space="preserve" y="367.5645" clip-path="url(#clipPath2)" stroke="none">IV(C1)</text>
      <circle fill="none" r="24.5" clip-path="url(#clipPath2)" cx="280.5" cy="355.5" stroke="black"/>
    </g>
    <g fill="maroon" text-rendering="geometricPrecision" shape-rendering="geometricPrecision" transform="matrix(1,0,0,1,15,15)" stroke="maroon">
      <circle r="24.5" clip-path="url(#clipPath2)" cx="587.5" cy="472.5" stroke="none"/>
    </g>
    <g stroke-linecap="butt" transform="matrix(1,0,0,1,15,15)" fill="white" text-rendering="geometricPrecision" font-family="sans-serif" shape-rendering="geometricPrecision" stroke="white" stroke-miterlimit="1.45">
      <text x="565.1494" xml:space="preserve" y="477.2139" clip-path="url(#clipPath2)" stroke="none">Dagoola</text>
      <circle fill="none" r="24.5" clip-path="url(#clipPath2)" cx="587.5" cy="472.5" stroke="black"/>
    </g>
    <g fill="rgb(153,51,0)" text-rendering="geometricPrecision" shape-rendering="geometricPrecision" transform="matrix(1,0,0,1,15,15)" stroke="rgb(153,51,0)">
      <path d="M517.875 187 L561 143.875 L604.125 187 L561 230.125 Z" fill-rule="evenodd" clip-path="url(#clipPath2)" stroke="none"/>
    </g>
    <g stroke-linecap="butt" transform="matrix(1,0,0,1,15,15)" fill="white" text-rendering="geometricPrecision" font-family="sans-serif" shape-rendering="geometricPrecision" stroke="white" stroke-miterlimit="1.45">
      <text x="546.9873" xml:space="preserve" y="184.3633" clip-path="url(#clipPath2)" stroke="none">Vega</text>
      <text x="542.3203" xml:space="preserve" y="199.0645" clip-path="url(#clipPath2)" stroke="none">Station</text>
      <path fill="none" d="M517.875 187 L561 143.875 L604.125 187 L561 230.125 Z" fill-rule="evenodd" clip-path="url(#clipPath2)" stroke="black"/>
    </g>
    <g fill="rgb(51,153,102)" text-rendering="geometricPrecision" shape-rendering="geometricPrecision" transform="matrix(1,0,0,1,15,15)" stroke="rgb(51,153,102)">
      <circle r="24.5" clip-path="url(#clipPath2)" cx="560.5" cy="321.5" stroke="none"/>
    </g>
    <g stroke-linecap="butt" transform="matrix(1,0,0,1,15,15)" fill="white" text-rendering="geometricPrecision" font-family="sans-serif" shape-rendering="geometricPrecision" stroke="white" stroke-miterlimit="1.45">
      <text x="541.1641" xml:space="preserve" y="326.2139" clip-path="url(#clipPath2)" stroke="none">Marilac</text>
      <circle fill="none" r="24.5" clip-path="url(#clipPath2)" cx="560.5" cy="321.5" stroke="black"/>
    </g>
    <g fill="maroon" text-rendering="geometricPrecision" shape-rendering="geometricPrecision" transform="matrix(1,0,0,1,15,15)" stroke="maroon">
      <circle r="24.5" clip-path="url(#clipPath2)" cx="766.5" cy="201.5" stroke="none"/>
    </g>
    <g stroke-linecap="butt" transform="matrix(1,0,0,1,15,15)" fill="white" text-rendering="geometricPrecision" font-family="sans-serif" shape-rendering="geometricPrecision" stroke="white" stroke-miterlimit="1.45">
      <text x="751.166" xml:space="preserve" y="206.2139" clip-path="url(#clipPath2)" stroke="none">Illirica</text>
      <circle fill="none" r="24.5" clip-path="url(#clipPath2)" cx="766.5" cy="201.5" stroke="black"/>
    </g>
    <g fill="rgb(153,51,0)" text-rendering="geometricPrecision" shape-rendering="geometricPrecision" transform="matrix(1,0,0,1,15,15)" stroke="rgb(153,51,0)">
      <path d="M348.875 735.5002 L391.9999 692.3752 L435.1249 735.5002 L391.9999 778.6252 Z" fill-rule="evenodd" clip-path="url(#clipPath2)" stroke="none"/>
    </g>
    <g stroke-linecap="butt" transform="matrix(1,0,0,1,15,15)" fill="white" text-rendering="geometricPrecision" font-family="sans-serif" shape-rendering="geometricPrecision" stroke="white" stroke-miterlimit="1.45">
      <text x="374.3193" xml:space="preserve" y="732.8633" clip-path="url(#clipPath2)" stroke="none">Hegen</text>
      <text x="380.9932" xml:space="preserve" y="747.5645" clip-path="url(#clipPath2)" stroke="none">Hub</text>
      <path fill="none" d="M348.875 735.5002 L391.9999 692.3752 L435.1249 735.5002 L391.9999 778.6252 Z" fill-rule="evenodd" clip-path="url(#clipPath2)" stroke="black"/>
    </g>
    <g fill="rgb(51,153,102)" text-rendering="geometricPrecision" shape-rendering="geometricPrecision" transform="matrix(1,0,0,1,15,15)" stroke="rgb(51,153,102)">
      <circle r="24.5" clip-path="url(#clipPath2)" cx="391.5" cy="889.5" stroke="none"/>
    </g>
    <g stroke-linecap="butt" transform="matrix(1,0,0,1,15,15)" fill="white" text-rendering="geometricPrecision" font-family="sans-serif" shape-rendering="geometricPrecision" stroke="white" stroke-miterlimit="1.45">
      <text x="373.1543" xml:space="preserve" y="894.2139" clip-path="url(#clipPath2)" stroke="none">Aslund</text>
      <circle fill="none" r="24.5" clip-path="url(#clipPath2)" cx="391.5" cy="889.5" stroke="black"/>
    </g>
    <g fill="rgb(51,153,102)" text-rendering="geometricPrecision" shape-rendering="geometricPrecision" transform="matrix(1,0,0,1,15,15)" stroke="rgb(51,153,102)">
      <circle r="24.5" clip-path="url(#clipPath2)" cx="570.5" cy="631.5" stroke="none"/>
    </g>
    <g stroke-linecap="butt" transform="matrix(1,0,0,1,15,15)" fill="white" text-rendering="geometricPrecision" font-family="sans-serif" shape-rendering="geometricPrecision" stroke="white" stroke-miterlimit="1.45">
      <text x="554.8262" xml:space="preserve" y="628.8633" clip-path="url(#clipPath2)" stroke="none">Some</text>
      <text x="554.1582" xml:space="preserve" y="643.5645" clip-path="url(#clipPath2)" stroke="none">where</text>
      <circle fill="none" r="24.5" clip-path="url(#clipPath2)" cx="570.5" cy="631.5" stroke="black"/>
    </g>
    <g fill="rgb(51,153,102)" text-rendering="geometricPrecision" shape-rendering="geometricPrecision" transform="matrix(1,0,0,1,15,15)" stroke="rgb(51,153,102)">
      <circle r="24.5" clip-path="url(#clipPath2)" cx="1108.5" cy="385.5" stroke="none"/>
    </g>
    <g stroke-linecap="butt" transform="matrix(1,0,0,1,15,15)" fill="white" text-rendering="geometricPrecision" font-family="sans-serif" shape-rendering="geometricPrecision" stroke="white" stroke-miterlimit="1.45">
      <text x="1090.8193" xml:space="preserve" y="390.2139" clip-path="url(#clipPath2)" stroke="none">Rodeo</text>
      <circle fill="none" r="24.5" clip-path="url(#clipPath2)" cx="1108.5" cy="385.5" stroke="black"/>
    </g>
    <g fill="maroon" text-rendering="geometricPrecision" shape-rendering="geometricPrecision" transform="matrix(1,0,0,1,15,15)" stroke="maroon">
      <circle r="32.625" clip-path="url(#clipPath2)" cx="599.5" cy="775.5" stroke="none"/>
    </g>
    <g stroke-linecap="butt" transform="matrix(1,0,0,1,15,15)" fill="white" text-rendering="geometricPrecision" font-family="sans-serif" shape-rendering="geometricPrecision" stroke="white" stroke-miterlimit="1.45">
      <text x="573.3438" xml:space="preserve" y="772.8633" clip-path="url(#clipPath2)" stroke="none">Jackson's</text>
      <text x="582.4932" xml:space="preserve" y="787.5645" clip-path="url(#clipPath2)" stroke="none">Whole</text>
      <circle fill="none" r="32.625" clip-path="url(#clipPath2)" cx="599.5" cy="775.5" stroke="black"/>
    </g>
    <g fill="blue" text-rendering="geometricPrecision" shape-rendering="geometricPrecision" transform="matrix(1,0,0,1,15,15)" stroke="blue">
      <circle r="24.5" clip-path="url(#clipPath2)" cx="713.5" cy="846.5" stroke="none"/>
    </g>
    <g stroke-linecap="butt" transform="matrix(1,0,0,1,15,15)" fill="white" text-rendering="geometricPrecision" font-family="sans-serif" shape-rendering="geometricPrecision" stroke="white" stroke-miterlimit="1.45">
      <text x="697.8262" xml:space="preserve" y="843.8633" clip-path="url(#clipPath2)" stroke="none">Some</text>
      <text x="697.1582" xml:space="preserve" y="858.5645" clip-path="url(#clipPath2)" stroke="none">where</text>
      <circle fill="none" r="24.5" clip-path="url(#clipPath2)" cx="713.5" cy="846.5" stroke="black"/>
    </g>
    <g fill="rgb(51,153,102)" text-rendering="geometricPrecision" shape-rendering="geometricPrecision" transform="matrix(1,0,0,1,15,15)" stroke="rgb(51,153,102)">
      <circle r="24.5" clip-path="url(#clipPath2)" cx="526.5" cy="896.5" stroke="none"/>
    </g>
    <g stroke-linecap="butt" transform="matrix(1,0,0,1,15,15)" fill="white" text-rendering="geometricPrecision" font-family="sans-serif" shape-rendering="geometricPrecision" stroke="white" stroke-miterlimit="1.45">
      <text x="510.8262" xml:space="preserve" y="893.8633" clip-path="url(#clipPath2)" stroke="none">Some</text>
      <text x="510.1582" xml:space="preserve" y="908.5645" clip-path="url(#clipPath2)" stroke="none">where</text>
      <circle fill="none" r="24.5" clip-path="url(#clipPath2)" cx="526.5" cy="896.5" stroke="black"/>
    </g>
    <g fill="maroon" text-rendering="geometricPrecision" shape-rendering="geometricPrecision" transform="matrix(1,0,0,1,15,15)" stroke="maroon">
      <circle r="24.5" clip-path="url(#clipPath2)" cx="702.5" cy="727.5" stroke="none"/>
    </g>
    <g stroke-linecap="butt" transform="matrix(1,0,0,1,15,15)" fill="white" text-rendering="geometricPrecision" font-family="sans-serif" shape-rendering="geometricPrecision" stroke="white" stroke-miterlimit="1.45">
      <text x="680.4893" xml:space="preserve" y="732.2139" clip-path="url(#clipPath2)" stroke="none">Escobar</text>
      <circle fill="none" r="24.5" clip-path="url(#clipPath2)" cx="702.5" cy="727.5" stroke="black"/>
    </g>
    <g fill="rgb(0,204,255)" text-rendering="geometricPrecision" shape-rendering="geometricPrecision" transform="matrix(1,0,0,1,15,15)" stroke="rgb(0,204,255)">
      <circle r="24.5" clip-path="url(#clipPath2)" cx="700.5" cy="335.5" stroke="none"/>
    </g>
    <g stroke-linecap="butt" transform="matrix(1,0,0,1,15,15)" fill="white" text-rendering="geometricPrecision" font-family="sans-serif" shape-rendering="geometricPrecision" stroke="white" stroke-miterlimit="1.45">
      <text x="683.8242" xml:space="preserve" y="332.8633" clip-path="url(#clipPath2)" stroke="none">Zoave</text>
      <text x="680.1621" xml:space="preserve" y="347.5645" clip-path="url(#clipPath2)" stroke="none">Twilight</text>
      <circle fill="none" r="24.5" clip-path="url(#clipPath2)" cx="700.5" cy="335.5" stroke="black"/>
    </g>
    <g fill="rgb(0,204,255)" text-rendering="geometricPrecision" shape-rendering="geometricPrecision" transform="matrix(1,0,0,1,15,15)" stroke="rgb(0,204,255)">
      <circle r="24.5" clip-path="url(#clipPath2)" cx="1018.5" cy="273.5" stroke="none"/>
    </g>
    <g stroke-linecap="butt" transform="matrix(1,0,0,1,15,15)" fill="white" text-rendering="geometricPrecision" font-family="sans-serif" shape-rendering="geometricPrecision" stroke="white" stroke-miterlimit="1.45">
      <text x="997.4854" xml:space="preserve" y="270.8633" clip-path="url(#clipPath2)" stroke="none">Quaddy</text>
      <text x="1002.4951" xml:space="preserve" y="285.5645" clip-path="url(#clipPath2)" stroke="none">Home</text>
      <circle fill="none" r="24.5" clip-path="url(#clipPath2)" cx="1018.5" cy="273.5" stroke="black"/>
    </g>
    <g fill="blue" text-rendering="geometricPrecision" shape-rendering="geometricPrecision" transform="matrix(1,0,0,1,15,15)" stroke="blue">
      <circle r="24.5" clip-path="url(#clipPath2)" cx="960.5" cy="411.5" stroke="none"/>
    </g>
    <g stroke-linecap="butt" transform="matrix(1,0,0,1,15,15)" fill="white" text-rendering="geometricPrecision" font-family="sans-serif" shape-rendering="geometricPrecision" stroke="white" stroke-miterlimit="1.45">
      <text x="936.8252" xml:space="preserve" y="416.2139" clip-path="url(#clipPath2)" stroke="none">Orient IV</text>
      <circle fill="none" r="24.5" clip-path="url(#clipPath2)" cx="960.5" cy="411.5" stroke="black"/>
    </g>
    <g fill="rgb(51,153,102)" text-rendering="geometricPrecision" shape-rendering="geometricPrecision" transform="matrix(1,0,0,1,15,15)" stroke="rgb(51,153,102)">
      <circle r="33.875" clip-path="url(#clipPath2)" cx="801.5" cy="521" stroke="none"/>
    </g>
    <g stroke-linecap="butt" transform="matrix(1,0,0,1,15,15)" fill="white" text-rendering="geometricPrecision" font-family="sans-serif" shape-rendering="geometricPrecision" stroke="white" stroke-miterlimit="1.45">
      <text x="778.8242" xml:space="preserve" y="511.0127" clip-path="url(#clipPath2)" stroke="none">Tau Ceti</text>
      <text x="777.8311" xml:space="preserve" y="525.7139" clip-path="url(#clipPath2)" stroke="none">W. Orion</text>
      <text x="790.502" xml:space="preserve" y="540.415" clip-path="url(#clipPath2)" stroke="none">Arm</text>
      <circle fill="none" r="33.875" clip-path="url(#clipPath2)" cx="801.5" cy="521" stroke="black"/>
    </g>
    <g fill="maroon" text-rendering="geometricPrecision" shape-rendering="geometricPrecision" transform="matrix(1,0,0,1,15,15)" stroke="maroon">
      <circle r="24.5" clip-path="url(#clipPath2)" cx="690.5" cy="560.5" stroke="none"/>
    </g>
    <g stroke-linecap="butt" transform="matrix(1,0,0,1,15,15)" fill="white" text-rendering="geometricPrecision" font-family="sans-serif" shape-rendering="geometricPrecision" stroke="white" stroke-miterlimit="1.45">
      <text x="670.4873" xml:space="preserve" y="557.8633" clip-path="url(#clipPath2)" stroke="none">Mahata</text>
      <text x="672.1602" xml:space="preserve" y="572.5645" clip-path="url(#clipPath2)" stroke="none">Solaris</text>
      <circle fill="none" r="24.5" clip-path="url(#clipPath2)" cx="690.5" cy="560.5" stroke="black"/>
    </g>
    <g fill="rgb(0,204,255)" text-rendering="geometricPrecision" shape-rendering="geometricPrecision" transform="matrix(1,0,0,1,15,15)" stroke="rgb(0,204,255)">
      <circle r="24.5" clip-path="url(#clipPath2)" cx="774.5" cy="676.5" stroke="none"/>
    </g>
    <g stroke-linecap="butt" transform="matrix(1,0,0,1,15,15)" fill="white" text-rendering="geometricPrecision" font-family="sans-serif" shape-rendering="geometricPrecision" stroke="white" stroke-miterlimit="1.45">
      <text x="760.1592" xml:space="preserve" y="681.2139" clip-path="url(#clipPath2)" stroke="none">Earth</text>
      <circle fill="none" r="24.5" clip-path="url(#clipPath2)" cx="774.5" cy="676.5" stroke="black"/>
    </g>
    <g fill="rgb(0,204,255)" text-rendering="geometricPrecision" shape-rendering="geometricPrecision" transform="matrix(1,0,0,1,15,15)" stroke="rgb(0,204,255)">
      <circle r="24.5" clip-path="url(#clipPath2)" cx="1103.5" cy="839.5" stroke="none"/>
    </g>
    <g stroke-linecap="butt" transform="matrix(1,0,0,1,15,15)" fill="white" text-rendering="geometricPrecision" font-family="sans-serif" shape-rendering="geometricPrecision" stroke="white" stroke-miterlimit="1.45">
      <text x="1093.4951" xml:space="preserve" y="844.2139" clip-path="url(#clipPath2)" stroke="none">Ylla</text>
      <circle fill="none" r="24.5" clip-path="url(#clipPath2)" cx="1103.5" cy="839.5" stroke="black"/>
    </g>
    <g fill="rgb(153,51,0)" text-rendering="geometricPrecision" shape-rendering="geometricPrecision" transform="matrix(1,0,0,1,15,15)" stroke="rgb(153,51,0)">
      <path d="M940.8751 569 L984 525.875 L1027.125 569 L984 612.125 Z" fill-rule="evenodd" clip-path="url(#clipPath2)" stroke="none"/>
    </g>
    <g stroke-linecap="butt" transform="matrix(1,0,0,1,15,15)" fill="white" text-rendering="geometricPrecision" font-family="sans-serif" shape-rendering="geometricPrecision" stroke="white" stroke-miterlimit="1.45">
      <text x="966.6562" xml:space="preserve" y="566.3633" clip-path="url(#clipPath2)" stroke="none">Dalton</text>
      <text x="965.3203" xml:space="preserve" y="581.0645" clip-path="url(#clipPath2)" stroke="none">Station</text>
      <path fill="none" d="M940.8751 569 L984 525.875 L1027.125 569 L984 612.125 Z" fill-rule="evenodd" clip-path="url(#clipPath2)" stroke="black"/>
    </g>
    <g fill="rgb(153,51,0)" text-rendering="geometricPrecision" shape-rendering="geometricPrecision" transform="matrix(1,0,0,1,15,15)" stroke="rgb(153,51,0)">
      <path d="M917.8749 756.4998 L960.9999 713.3748 L1004.1249 756.4998 L960.9999 799.6248 Z" fill-rule="evenodd" clip-path="url(#clipPath2)" stroke="none"/>
    </g>
    <g stroke-linecap="butt" transform="matrix(1,0,0,1,15,15)" fill="white" text-rendering="geometricPrecision" font-family="sans-serif" shape-rendering="geometricPrecision" stroke="white" stroke-miterlimit="1.45">
      <text x="944.3301" xml:space="preserve" y="753.8633" clip-path="url(#clipPath2)" stroke="none">Morita</text>
      <text x="942.3203" xml:space="preserve" y="768.5645" clip-path="url(#clipPath2)" stroke="none">Station</text>
      <path fill="none" d="M917.8749 756.4998 L960.9999 713.3748 L1004.1249 756.4998 L960.9999 799.6248 Z" fill-rule="evenodd" clip-path="url(#clipPath2)" stroke="black"/>
    </g>
    <g fill="rgb(51,153,102)" text-rendering="geometricPrecision" shape-rendering="geometricPrecision" transform="matrix(1,0,0,1,15,15)" stroke="rgb(51,153,102)">
      <circle r="24.5" clip-path="url(#clipPath2)" cx="1148.5" cy="585.5" stroke="none"/>
    </g>
    <g stroke-linecap="butt" transform="matrix(1,0,0,1,15,15)" fill="white" text-rendering="geometricPrecision" font-family="sans-serif" shape-rendering="geometricPrecision" stroke="white" stroke-miterlimit="1.45">
      <text x="1138.1611" xml:space="preserve" y="582.8633" clip-path="url(#clipPath2)" stroke="none">Tau</text>
      <text x="1132.4893" xml:space="preserve" y="597.5645" clip-path="url(#clipPath2)" stroke="none">Verde</text>
      <circle fill="none" r="24.5" clip-path="url(#clipPath2)" cx="1148.5" cy="585.5" stroke="black"/>
    </g>
    <g fill="rgb(255,102,0)" text-rendering="geometricPrecision" shape-rendering="geometricPrecision" transform="matrix(1,0,0,1,15,15)" stroke="rgb(255,102,0)">
      <circle r="24.5" clip-path="url(#clipPath2)" cx="867.5" cy="665.5" stroke="none"/>
    </g>
    <g text-rendering="geometricPrecision" stroke-miterlimit="1.45" shape-rendering="geometricPrecision" font-family="sans-serif" transform="matrix(1,0,0,1,15,15)" stroke-linecap="butt">
      <text x="855.1572" xml:space="preserve" y="662.8633" clip-path="url(#clipPath2)" stroke="none">Beta</text>
      <text x="848.8232" xml:space="preserve" y="677.5645" clip-path="url(#clipPath2)" stroke="none">Colony</text>
      <circle fill="none" r="24.5" clip-path="url(#clipPath2)" cx="867.5" cy="665.5"/>
    </g>
    <g fill="rgb(255,102,0)" text-rendering="geometricPrecision" shape-rendering="geometricPrecision" transform="matrix(1,0,0,1,15,15)" stroke="rgb(255,102,0)">
      <circle r="24.5" clip-path="url(#clipPath2)" cx="838.5" cy="377.5" stroke="none"/>
    </g>
    <g text-rendering="geometricPrecision" stroke-miterlimit="1.45" shape-rendering="geometricPrecision" font-family="sans-serif" transform="matrix(1,0,0,1,15,15)" stroke-linecap="butt">
      <text x="815.1475" xml:space="preserve" y="382.2139" clip-path="url(#clipPath2)" stroke="none">Lairouba</text>
      <circle fill="none" r="24.5" clip-path="url(#clipPath2)" cx="838.5" cy="377.5"/>
    </g>
    <g fill="rgb(153,51,0)" text-rendering="geometricPrecision" shape-rendering="geometricPrecision" transform="matrix(1,0,0,1,15,15)" stroke="rgb(153,51,0)">
      <path d="M616.8749 950 L659.9999 906.8749 L703.125 950 L659.9999 993.125 Z" fill-rule="evenodd" clip-path="url(#clipPath2)" stroke="none"/>
    </g>
    <g stroke-linecap="butt" transform="matrix(1,0,0,1,15,15)" fill="white" text-rendering="geometricPrecision" font-family="sans-serif" shape-rendering="geometricPrecision" stroke="white" stroke-miterlimit="1.45">
      <text x="646.6582" xml:space="preserve" y="947.3633" clip-path="url(#clipPath2)" stroke="none">Kline</text>
      <text x="641.3203" xml:space="preserve" y="962.0645" clip-path="url(#clipPath2)" stroke="none">Station</text>
      <path fill="none" d="M616.8749 950 L659.9999 906.8749 L703.125 950 L659.9999 993.125 Z" fill-rule="evenodd" clip-path="url(#clipPath2)" stroke="black"/>
    </g>
    <g fill="maroon" text-rendering="geometricPrecision" shape-rendering="geometricPrecision" transform="matrix(1,0,0,1,15,15)" stroke="maroon">
      <circle r="24.5" clip-path="url(#clipPath2)" cx="734.5" cy="1111.5" stroke="none"/>
    </g>
    <g stroke-linecap="butt" transform="matrix(1,0,0,1,15,15)" fill="white" text-rendering="geometricPrecision" font-family="sans-serif" shape-rendering="geometricPrecision" stroke="white" stroke-miterlimit="1.45">
      <text x="718.8262" xml:space="preserve" y="1108.8633" clip-path="url(#clipPath2)" stroke="none">Some</text>
      <text x="718.1582" xml:space="preserve" y="1123.5645" clip-path="url(#clipPath2)" stroke="none">where</text>
      <circle fill="none" r="24.5" clip-path="url(#clipPath2)" cx="734.5" cy="1111.5" stroke="black"/>
    </g>
    <g fill="rgb(0,204,255)" text-rendering="geometricPrecision" shape-rendering="geometricPrecision" transform="matrix(1,0,0,1,15,15)" stroke="rgb(0,204,255)">
      <circle r="24.5" clip-path="url(#clipPath2)" cx="613.5" cy="1116.5" stroke="none"/>
    </g>
    <g stroke-linecap="butt" transform="matrix(1,0,0,1,15,15)" fill="white" text-rendering="geometricPrecision" font-family="sans-serif" shape-rendering="geometricPrecision" stroke="white" stroke-miterlimit="1.45">
      <text x="598.1572" xml:space="preserve" y="1121.2139" clip-path="url(#clipPath2)" stroke="none">Athos</text>
      <circle fill="none" r="24.5" clip-path="url(#clipPath2)" cx="613.5" cy="1116.5" stroke="black"/>
    </g>
    <g fill="rgb(0,204,255)" text-rendering="geometricPrecision" shape-rendering="geometricPrecision" transform="matrix(1,0,0,1,15,15)" stroke="rgb(0,204,255)">
      <circle r="24.5" clip-path="url(#clipPath2)" cx="817.5" cy="1020.5" stroke="none"/>
    </g>
    <g stroke-linecap="butt" transform="matrix(1,0,0,1,15,15)" fill="white" text-rendering="geometricPrecision" font-family="sans-serif" shape-rendering="geometricPrecision" stroke="white" stroke-miterlimit="1.45">
      <text x="801.8262" xml:space="preserve" y="1017.8633" clip-path="url(#clipPath2)" stroke="none">Some</text>
      <text x="801.1582" xml:space="preserve" y="1032.5645" clip-path="url(#clipPath2)" stroke="none">where</text>
      <circle fill="none" r="24.5" clip-path="url(#clipPath2)" cx="817.5" cy="1020.5" stroke="black"/>
    </g>
    <g fill="blue" text-rendering="geometricPrecision" shape-rendering="geometricPrecision" transform="matrix(1,0,0,1,15,15)" stroke="blue">
      <circle r="24.5" clip-path="url(#clipPath2)" cx="498.5" cy="1043.5" stroke="none"/>
    </g>
    <g stroke-linecap="butt" transform="matrix(1,0,0,1,15,15)" fill="white" text-rendering="geometricPrecision" font-family="sans-serif" shape-rendering="geometricPrecision" stroke="white" stroke-miterlimit="1.45">
      <text x="481.1562" xml:space="preserve" y="1040.8633" clip-path="url(#clipPath2)" stroke="none">Nuovo</text>
      <text x="483.4971" xml:space="preserve" y="1055.5645" clip-path="url(#clipPath2)" stroke="none">Brasil</text>
      <circle fill="none" r="24.5" clip-path="url(#clipPath2)" cx="498.5" cy="1043.5" stroke="black"/>
    </g>
    <g fill="blue" text-rendering="geometricPrecision" shape-rendering="geometricPrecision" transform="matrix(1,0,0,1,15,15)" stroke="blue">
      <circle r="24.5" clip-path="url(#clipPath2)" cx="345.5" cy="1042.5" stroke="none"/>
    </g>
    <g stroke-linecap="butt" transform="matrix(1,0,0,1,15,15)" fill="white" text-rendering="geometricPrecision" font-family="sans-serif" shape-rendering="geometricPrecision" stroke="white" stroke-miterlimit="1.45">
      <text x="326.4893" xml:space="preserve" y="1039.8633" clip-path="url(#clipPath2)" stroke="none">Varusa</text>
      <text x="327.1631" xml:space="preserve" y="1054.5645" clip-path="url(#clipPath2)" stroke="none">Tertius</text>
      <circle fill="none" r="24.5" clip-path="url(#clipPath2)" cx="345.5" cy="1042.5" stroke="black"/>
    </g>
    <g fill="rgb(51,153,102)" text-rendering="geometricPrecision" shape-rendering="geometricPrecision" transform="matrix(1,0,0,1,15,15)" stroke="rgb(51,153,102)">
      <circle r="24.5" clip-path="url(#clipPath2)" cx="497.5" cy="718.5" stroke="none"/>
    </g>
    <g stroke-linecap="butt" transform="matrix(1,0,0,1,15,15)" fill="white" text-rendering="geometricPrecision" font-family="sans-serif" shape-rendering="geometricPrecision" stroke="white" stroke-miterlimit="1.45">
      <text x="476.4912" xml:space="preserve" y="723.2139" clip-path="url(#clipPath2)" stroke="none">Sergyar</text>
      <circle fill="none" r="24.5" clip-path="url(#clipPath2)" cx="497.5" cy="718.5" stroke="black"/>
    </g>
    <g fill="rgb(0,204,255)" text-rendering="geometricPrecision" shape-rendering="geometricPrecision" transform="matrix(1,0,0,1,15,15)" stroke="rgb(0,204,255)">
      <circle r="40.5" clip-path="url(#clipPath2)" cx="837.5" cy="842.5" stroke="none"/>
    </g>
    <g stroke-linecap="butt" transform="matrix(1,0,0,1,15,15)" fill="white" text-rendering="geometricPrecision" font-family="sans-serif" shape-rendering="geometricPrecision" stroke="white" stroke-miterlimit="1.45">
      <text x="807.4795" xml:space="preserve" y="847.2139" clip-path="url(#clipPath2)" stroke="none">Kibou-daini</text>
      <circle fill="none" r="40.5" clip-path="url(#clipPath2)" cx="837.5" cy="842.5" stroke="black"/>
      <path fill="none" d="M284.3166 740.9025 L271.6834 882.0975" clip-path="url(#clipPath2)" stroke="black"/>
      <path fill="none" d="M262.7584 710.4512 L153.2416 682.5488" clip-path="url(#clipPath2)" stroke="black"/>
      <path fill="none" d="M157.1493 785.0302 L264.8507 727.9698" clip-path="url(#clipPath2)" stroke="black"/>
      <path fill="none" d="M277.1469 739.1444 L257.8531 785.8556" clip-path="url(#clipPath2)" stroke="black"/>
      <path fill="none" d="M48.156 429.8754 L141.844 455.1246" clip-path="url(#clipPath2)" stroke="black"/>
      <path fill="none" d="M176.4567 483.4135 L228.5433 587.5865" clip-path="url(#clipPath2)" stroke="black"/>
      <path fill="none" d="M154.5004 119.0536 L216.4996 190.9464" clip-path="url(#clipPath2)" stroke="black"/>
      <path fill="none" d="M427.5313 357.2747 L455.4687 427.7253" clip-path="url(#clipPath2)" stroke="black"/>
      <path fill="none" d="M288.4384 692.0768 L299.5616 551.9232" clip-path="url(#clipPath2)" stroke="black"/>
      <path fill="none" d="M256.9694 210.7235 L348.0306 215.2765" clip-path="url(#clipPath2)" stroke="black"/>
      <path fill="none" d="M240.1519 232.7744 L272.8481 332.2256" clip-path="url(#clipPath2)" stroke="black"/>
      <path fill="none" d="M394.2788 338.1858 L304.7212 351.8142" clip-path="url(#clipPath2)" stroke="black"/>
      <path fill="none" d="M183.5147 444.8951 L262.4853 372.1049" clip-path="url(#clipPath2)" stroke="black"/>
      <path fill="none" d="M283.4692 379.8194 L298.5308 503.1806" clip-path="url(#clipPath2)" stroke="black"/>
      <path fill="none" d="M294.0222 335.0696 L358.9778 236.9303" clip-path="url(#clipPath2)" stroke="black"/>
      <path fill="none" d="M488.6172 454.8137 L563.3828 468.1863" clip-path="url(#clipPath2)" stroke="black"/>
      <path fill="none" d="M567.3704 48.9739 L562.9021 145.7876" clip-path="url(#clipPath2)" stroke="black"/>
      <path fill="none" d="M396.7054 212.7119 L523.7369 192.8316" clip-path="url(#clipPath2)" stroke="black"/>
      <path fill="none" d="M442.898 332.2664 L536.1021 323.7336" clip-path="url(#clipPath2)" stroke="black"/>
      <path fill="none" d="M270.3369 797.3914 L363.3961 750.0511" clip-path="url(#clipPath2)" stroke="black"/>
      <path fill="none" d="M258.3872 625.1052 L368.4155 716.0138" clip-path="url(#clipPath2)" stroke="black"/>
      <path fill="none" d="M391.5796 865.0001 L391.8605 778.4665" clip-path="url(#clipPath2)" stroke="black"/>
      <path fill="none" d="M575.3369 655.5178 L593.059 743.5172" clip-path="url(#clipPath2)" stroke="black"/>
      <path fill="none" d="M428.1453 742.4678 L567.4648 769.3245" clip-path="url(#clipPath2)" stroke="black"/>
      <path fill="none" d="M692.7036 833.5479 L627.1932 792.7475" clip-path="url(#clipPath2)" stroke="black"/>
      <path fill="none" d="M539.1561 875.5221 L582.6467 803.4349" clip-path="url(#clipPath2)" stroke="black"/>
      <path fill="none" d="M629.0715 761.7191 L680.293 737.8489" clip-path="url(#clipPath2)" stroke="black"/>
      <path fill="none" d="M581.8773 209.2242 L683.7255 317.6432" clip-path="url(#clipPath2)" stroke="black"/>
      <path fill="none" d="M755.6747 223.4787 L711.3253 313.5213" clip-path="url(#clipPath2)" stroke="black"/>
      <path fill="none" d="M584.8784 323.9378 L676.1216 333.0622" clip-path="url(#clipPath2)" stroke="black"/>
      <path fill="none" d="M1084.3695 389.7391 L984.6305 407.2609" clip-path="url(#clipPath2)" stroke="black"/>
      <path fill="none" d="M1009.0073 296.0862 L969.9927 388.9138" clip-path="url(#clipPath2)" stroke="black"/>
      <path fill="none" d="M712.2156 357.0173 L785.3014 491.249" clip-path="url(#clipPath2)" stroke="black"/>
      <path fill="none" d="M940.3221 425.3961 L829.399 501.7865" clip-path="url(#clipPath2)" stroke="black"/>
      <path fill="none" d="M713.0915 705.4077 L786.8557 551.546" clip-path="url(#clipPath2)" stroke="black"/>
      <path fill="none" d="M606.1273 488.4146 L671.8727 544.5854" clip-path="url(#clipPath2)" stroke="black"/>
      <path fill="none" d="M713.5821 552.2861 L769.5855 532.3569" clip-path="url(#clipPath2)" stroke="black"/>
      <path fill="none" d="M704.8695 580.3436 L760.1305 656.6564" clip-path="url(#clipPath2)" stroke="black"/>
      <path fill="none" d="M795.7049 554.3756 L778.6913 652.3611" clip-path="url(#clipPath2)" stroke="black"/>
      <path fill="none" d="M753.1758 688.5634 L627.8961 759.4359" clip-path="url(#clipPath2)" stroke="black"/>
      <path fill="none" d="M834.2608 529.6165 L949.8919 560.0291" clip-path="url(#clipPath2)" stroke="black"/>
      <path fill="none" d="M1082.3293 827.169 L988.2813 772.3902" clip-path="url(#clipPath2)" stroke="black"/>
      <path fill="none" d="M797.0159 686.1583 L930.8535 743.5685" clip-path="url(#clipPath2)" stroke="black"/>
      <path fill="none" d="M1124.1223 583.0548 L1023.1699 572.9289" clip-path="url(#clipPath2)" stroke="black"/>
      <path fill="none" d="M725.4343 718.8823 L844.5657 674.1177" clip-path="url(#clipPath2)" stroke="black"/>
      <path fill="none" d="M843.1696 668.3778 L798.8304 673.6222" clip-path="url(#clipPath2)" stroke="black"/>
      <path fill="none" d="M886.3678 649.8713 L960.4262 588.5268" clip-path="url(#clipPath2)" stroke="black"/>
      <path fill="none" d="M809.9577 488.1978 L832.383 401.2241" clip-path="url(#clipPath2)" stroke="black"/>
      <path fill="none" d="M610.1871 806.3249 L648.8967 917.9748" clip-path="url(#clipPath2)" stroke="black"/>
      <path fill="none" d="M697.9033 751.5649 L666.9125 913.8108" clip-path="url(#clipPath2)" stroke="black"/>
      <path fill="none" d="M673.6232 979.5321 L724.2374 1089.2529" clip-path="url(#clipPath2)" stroke="black"/>
      <path fill="none" d="M650.5887 983.6984 L620.0901 1092.903" clip-path="url(#clipPath2)" stroke="black"/>
      <path fill="none" d="M689.8004 963.3392 L795.1381 1010.4904" clip-path="url(#clipPath2)" stroke="black"/>
      <path fill="none" d="M632.6759 965.8192 L519.7029 1031.2246" clip-path="url(#clipPath2)" stroke="black"/>
      <path fill="none" d="M474.0005 1043.3398 L369.9995 1042.6602" clip-path="url(#clipPath2)" stroke="black"/>
      <path fill="none" d="M281.4516 927.8871 L333.5484 1021.1129" clip-path="url(#clipPath2)" stroke="black"/>
      <path fill="none" d="M310.9989 716.7322 L473.0011 718.2678" clip-path="url(#clipPath2)" stroke="black"/>
      <path fill="none" d="M521.9764 719.5746 L678.0236 726.4254" clip-path="url(#clipPath2)" stroke="black"/>
      <path fill="none" d="M721.1505 743.3875 L806.6697 816.2371" clip-path="url(#clipPath2)" stroke="black"/>
    </g>
  </g>
</svg>
