<?xml version="1.0" encoding="UTF-8"?><svg xmlns="http://www.w3.org/2000/svg" xmlns:xlink="http://www.w3.org/1999/xlink" fill-opacity="1" color-rendering="auto" color-interpolation="auto" text-rendering="auto" stroke="black" stroke-linecap="square" width="1236" stroke-miterlimit="10" shape-rendering="auto" stroke-opacity="1" fill="black" stroke-dasharray="none" font-weight="normal" stroke-width="1" height="1186" font-family="'Dialog'" font-style="normal" stroke-linejoin="miter" font-size="12px" stroke-dashoffset="0" image-rendering="auto">
  <!--Generated by ySVG 2.5-->
  <defs id="genericDefs"/>
  <g>
    <defs id="defs1">
      <clipPath clipPathUnits="userSpaceOnUse" id="clipPath1">
        <path d="M0 0 L1236 0 L1236 1186 L0 1186 L0 0 Z"/>
      </clipPath>
      <clipPath clipPathUnits="userSpaceOnUse" id="clipPath2">
        <path d="M-15 -15 L1221 -15 L1221 1171 L-15 1171 L-15 -15 Z"/>
      </clipPath>
    </defs>
    <g fill="white" text-rendering="geometricPrecision" shape-rendering="geometricPrecision" transform="translate(15,15)" stroke="white">
      <rect x="-15" width="1236" height="1186" y="-15" clip-path="url(#clipPath2)" stroke="none"/>
    </g>
    <g fill="rgb(51,153,102)" text-rendering="geometricPrecision" shape-rendering="geometricPrecision" transform="matrix(1,0,0,1,15,15)" stroke="rgb(51,153,102)">
      <circle r="24.5" clip-path="url(#clipPath2)" cx="316.7514" cy="940.3212" stroke="none"/>
    </g>
    <g stroke-linecap="butt" transform="matrix(1,0,0,1,15,15)" fill="white" text-rendering="geometricPrecision" font-family="sans-serif" shape-rendering="geometricPrecision" stroke="white" stroke-miterlimit="1.45">
      <text x="299.768" xml:space="preserve" y="937.6844" clip-path="url(#clipPath2)" stroke="none">Фрост</text>
      <text x="311.0825" xml:space="preserve" y="952.3856" clip-path="url(#clipPath2)" stroke="none">IV</text>
      <circle fill="none" r="24.5" clip-path="url(#clipPath2)" cx="316.7514" cy="940.3212" stroke="black"/>
    </g>
    <g fill="rgb(51,153,102)" text-rendering="geometricPrecision" shape-rendering="geometricPrecision" transform="matrix(1,0,0,1,15,15)" stroke="rgb(51,153,102)">
      <circle r="24.5" clip-path="url(#clipPath2)" cx="280.7514" cy="653.3212" stroke="none"/>
    </g>
    <g stroke-linecap="butt" transform="matrix(1,0,0,1,15,15)" fill="white" text-rendering="geometricPrecision" font-family="sans-serif" shape-rendering="geometricPrecision" stroke="white" stroke-miterlimit="1.45">
      <text x="260.2377" xml:space="preserve" y="658.035" clip-path="url(#clipPath2)" stroke="none">Верван</text>
      <circle fill="none" r="24.5" clip-path="url(#clipPath2)" cx="280.7514" cy="653.3212" stroke="black"/>
    </g>
    <g fill="rgb(51,153,102)" text-rendering="geometricPrecision" shape-rendering="geometricPrecision" transform="matrix(1,0,0,1,15,15)" stroke="rgb(51,153,102)">
      <circle r="24.5" clip-path="url(#clipPath2)" cx="324.7514" cy="750.3212" stroke="none"/>
    </g>
    <g stroke-linecap="butt" transform="matrix(1,0,0,1,15,15)" fill="white" text-rendering="geometricPrecision" font-family="sans-serif" shape-rendering="geometricPrecision" stroke="white" stroke-miterlimit="1.45">
      <text x="300.4467" xml:space="preserve" y="755.035" clip-path="url(#clipPath2)" stroke="none">Комарра</text>
      <circle fill="none" r="24.5" clip-path="url(#clipPath2)" cx="324.7514" cy="750.3212" stroke="black"/>
    </g>
    <g fill="rgb(51,153,102)" text-rendering="geometricPrecision" shape-rendering="geometricPrecision" transform="matrix(1,0,0,1,15,15)" stroke="rgb(51,153,102)">
      <circle r="24.5" clip-path="url(#clipPath2)" cx="166.7514" cy="712.3212" stroke="none"/>
    </g>
    <g stroke-linecap="butt" transform="matrix(1,0,0,1,15,15)" fill="white" text-rendering="geometricPrecision" font-family="sans-serif" shape-rendering="geometricPrecision" stroke="white" stroke-miterlimit="1.45">
      <text x="142.8803" xml:space="preserve" y="717.035" clip-path="url(#clipPath2)" stroke="none">Барраяр</text>
      <circle fill="none" r="24.5" clip-path="url(#clipPath2)" cx="166.7514" cy="712.3212" stroke="black"/>
    </g>
    <g fill="maroon" text-rendering="geometricPrecision" shape-rendering="geometricPrecision" transform="matrix(1,0,0,1,15,15)" stroke="maroon">
      <circle r="24.5" clip-path="url(#clipPath2)" cx="170.7514" cy="829.3212" stroke="none"/>
    </g>
    <g text-rendering="geometricPrecision" stroke-miterlimit="1.45" shape-rendering="geometricPrecision" transform="matrix(1,0,0,1,15,15)" stroke-linecap="butt">
      <circle fill="none" r="24.5" clip-path="url(#clipPath2)" cx="170.7514" cy="829.3212"/>
    </g>
    <g fill="maroon" text-rendering="geometricPrecision" shape-rendering="geometricPrecision" transform="matrix(1,0,0,1,15,15)" stroke="maroon">
      <circle r="24.5" clip-path="url(#clipPath2)" cx="279.7514" cy="847.3212" stroke="none"/>
    </g>
    <g stroke-linecap="butt" transform="matrix(1,0,0,1,15,15)" fill="white" text-rendering="geometricPrecision" font-family="sans-serif" shape-rendering="geometricPrecision" stroke="white" stroke-miterlimit="1.45">
      <text x="268.601" xml:space="preserve" y="852.035" clip-path="url(#clipPath2)" stroke="none">Пол</text>
      <circle fill="none" r="24.5" clip-path="url(#clipPath2)" cx="279.7514" cy="847.3212" stroke="black"/>
    </g>
    <g fill="maroon" text-rendering="geometricPrecision" shape-rendering="geometricPrecision" transform="matrix(1,0,0,1,15,15)" stroke="maroon">
      <circle r="32.8212" clip-path="url(#clipPath2)" cx="559.7514" cy="32.8212" stroke="none"/>
    </g>
    <g stroke-linecap="butt" transform="matrix(1,0,0,1,15,15)" fill="white" text-rendering="geometricPrecision" font-family="sans-serif" shape-rendering="geometricPrecision" stroke="white" stroke-miterlimit="1.45">
      <text x="532.7368" xml:space="preserve" y="37.5351" clip-path="url(#clipPath2)" stroke="none">Торанира</text>
      <circle fill="none" r="32.8212" clip-path="url(#clipPath2)" cx="559.7514" cy="32.8212" stroke="black"/>
    </g>
    <g fill="blue" text-rendering="geometricPrecision" shape-rendering="geometricPrecision" transform="matrix(1,0,0,1,15,15)" stroke="blue">
      <circle r="34.2514" clip-path="url(#clipPath2)" cx="34.2514" cy="483.8212" stroke="none"/>
    </g>
    <g stroke-linecap="butt" transform="matrix(1,0,0,1,15,15)" fill="white" text-rendering="geometricPrecision" font-family="sans-serif" shape-rendering="geometricPrecision" stroke="white" stroke-miterlimit="1.45">
      <text x="14.1391" xml:space="preserve" y="481.1845" clip-path="url(#clipPath2)" stroke="none">Дельта</text>
      <text x="10.4125" xml:space="preserve" y="495.8857" clip-path="url(#clipPath2)" stroke="none">Павонис</text>
      <circle fill="none" r="34.2514" clip-path="url(#clipPath2)" cx="34.2514" cy="483.8212" stroke="black"/>
    </g>
    <g fill="blue" text-rendering="geometricPrecision" shape-rendering="geometricPrecision" transform="matrix(1,0,0,1,15,15)" stroke="blue">
      <circle r="24.5" clip-path="url(#clipPath2)" cx="188.7514" cy="513.3212" stroke="none"/>
    </g>
    <g stroke-linecap="butt" transform="matrix(1,0,0,1,15,15)" fill="white" text-rendering="geometricPrecision" font-family="sans-serif" shape-rendering="geometricPrecision" stroke="white" stroke-miterlimit="1.45">
      <text x="179.2534" xml:space="preserve" y="510.6845" clip-path="url(#clipPath2)" stroke="none">Мю</text>
      <text x="175.8198" xml:space="preserve" y="525.3856" clip-path="url(#clipPath2)" stroke="none">Кита</text>
      <circle fill="none" r="24.5" clip-path="url(#clipPath2)" cx="188.7514" cy="513.3212" stroke="black"/>
    </g>
    <g fill="blue" text-rendering="geometricPrecision" shape-rendering="geometricPrecision" transform="matrix(1,0,0,1,15,15)" stroke="blue">
      <circle r="24.5" clip-path="url(#clipPath2)" cx="233.7514" cy="246.3212" stroke="none"/>
    </g>
    <g stroke-linecap="butt" transform="matrix(1,0,0,1,15,15)" fill="white" text-rendering="geometricPrecision" font-family="sans-serif" shape-rendering="geometricPrecision" stroke="white" stroke-miterlimit="1.45">
      <text x="216.4164" xml:space="preserve" y="243.6845" clip-path="url(#clipPath2)" stroke="none">Сигма</text>
      <text x="220.8198" xml:space="preserve" y="258.3857" clip-path="url(#clipPath2)" stroke="none">Кита</text>
      <circle fill="none" r="24.5" clip-path="url(#clipPath2)" cx="233.7514" cy="246.3212" stroke="black"/>
    </g>
    <g fill="blue" text-rendering="geometricPrecision" shape-rendering="geometricPrecision" transform="matrix(1,0,0,1,15,15)" stroke="blue">
      <circle r="36.8518" clip-path="url(#clipPath2)" cx="126.2514" cy="133.8212" stroke="none"/>
    </g>
    <g stroke-linecap="butt" transform="matrix(1,0,0,1,15,15)" fill="white" text-rendering="geometricPrecision" font-family="sans-serif" shape-rendering="geometricPrecision" stroke="white" stroke-miterlimit="1.45">
      <text x="108.9164" xml:space="preserve" y="131.1845" clip-path="url(#clipPath2)" stroke="none">Сигма</text>
      <text x="99.8871" xml:space="preserve" y="145.8857" clip-path="url(#clipPath2)" stroke="none">Драконис</text>
      <circle fill="none" r="36.8518" clip-path="url(#clipPath2)" cx="126.2514" cy="133.8212" stroke="black"/>
    </g>
    <g fill="blue" text-rendering="geometricPrecision" shape-rendering="geometricPrecision" transform="matrix(1,0,0,1,15,15)" stroke="blue">
      <circle r="24.5" clip-path="url(#clipPath2)" cx="466.7514" cy="476.3212" stroke="none"/>
    </g>
    <g stroke-linecap="butt" transform="matrix(1,0,0,1,15,15)" fill="white" text-rendering="geometricPrecision" font-family="sans-serif" shape-rendering="geometricPrecision" stroke="white" stroke-miterlimit="1.45">
      <text x="453.392" xml:space="preserve" y="473.6845" clip-path="url(#clipPath2)" stroke="none">Бета</text>
      <text x="449.4809" xml:space="preserve" y="488.3857" clip-path="url(#clipPath2)" stroke="none">Канум</text>
      <circle fill="none" r="24.5" clip-path="url(#clipPath2)" cx="466.7514" cy="476.3212" stroke="black"/>
    </g>
    <g fill="blue" text-rendering="geometricPrecision" shape-rendering="geometricPrecision" transform="matrix(1,0,0,1,15,15)" stroke="blue">
      <circle r="24.5" clip-path="url(#clipPath2)" cx="419.7514" cy="362.3212" stroke="none"/>
    </g>
    <g stroke-linecap="butt" transform="matrix(1,0,0,1,15,15)" fill="white" text-rendering="geometricPrecision" font-family="sans-serif" shape-rendering="geometricPrecision" stroke="white" stroke-miterlimit="1.45">
      <text x="409.9047" xml:space="preserve" y="359.6845" clip-path="url(#clipPath2)" stroke="none">Кси</text>
      <text x="406.8198" xml:space="preserve" y="374.3857" clip-path="url(#clipPath2)" stroke="none">Кита</text>
      <circle fill="none" r="24.5" clip-path="url(#clipPath2)" cx="419.7514" cy="362.3212" stroke="black"/>
    </g>
    <g fill="blue" text-rendering="geometricPrecision" shape-rendering="geometricPrecision" transform="matrix(1,0,0,1,15,15)" stroke="blue">
      <circle r="24.5" clip-path="url(#clipPath2)" cx="319.7514" cy="559.3212" stroke="none"/>
    </g>
    <g stroke-linecap="butt" transform="matrix(1,0,0,1,15,15)" fill="white" text-rendering="geometricPrecision" font-family="sans-serif" shape-rendering="geometricPrecision" stroke="white" stroke-miterlimit="1.45">
      <text x="312.4125" xml:space="preserve" y="556.6844" clip-path="url(#clipPath2)" stroke="none">Ро</text>
      <text x="306.8198" xml:space="preserve" y="571.3856" clip-path="url(#clipPath2)" stroke="none">Кита</text>
      <circle fill="none" r="24.5" clip-path="url(#clipPath2)" cx="319.7514" cy="559.3212" stroke="black"/>
    </g>
    <g fill="blue" text-rendering="geometricPrecision" shape-rendering="geometricPrecision" transform="matrix(1,0,0,1,15,15)" stroke="blue">
      <circle r="24.5" clip-path="url(#clipPath2)" cx="374.7514" cy="244.3212" stroke="none"/>
    </g>
    <g stroke-linecap="butt" transform="matrix(1,0,0,1,15,15)" fill="white" text-rendering="geometricPrecision" font-family="sans-serif" shape-rendering="geometricPrecision" stroke="white" stroke-miterlimit="1.45">
      <text x="356.5786" xml:space="preserve" y="249.0351" clip-path="url(#clipPath2)" stroke="none">Ола III</text>
      <circle fill="none" r="24.5" clip-path="url(#clipPath2)" cx="374.7514" cy="244.3212" stroke="black"/>
    </g>
    <g fill="blue" text-rendering="geometricPrecision" shape-rendering="geometricPrecision" transform="matrix(1,0,0,1,15,15)" stroke="blue">
      <circle r="24.5" clip-path="url(#clipPath2)" cx="287.7514" cy="390.3212" stroke="none"/>
    </g>
    <g stroke-linecap="butt" transform="matrix(1,0,0,1,15,15)" fill="white" text-rendering="geometricPrecision" font-family="sans-serif" shape-rendering="geometricPrecision" stroke="white" stroke-miterlimit="1.45">
      <text x="277.3539" xml:space="preserve" y="387.6845" clip-path="url(#clipPath2)" stroke="none">Эта</text>
      <text x="274.8198" xml:space="preserve" y="402.3857" clip-path="url(#clipPath2)" stroke="none">Кита</text>
      <circle fill="none" r="24.5" clip-path="url(#clipPath2)" cx="287.7514" cy="390.3212" stroke="black"/>
    </g>
    <g fill="maroon" text-rendering="geometricPrecision" shape-rendering="geometricPrecision" transform="matrix(1,0,0,1,15,15)" stroke="maroon">
      <circle r="24.5" clip-path="url(#clipPath2)" cx="593.7514" cy="493.3212" stroke="none"/>
    </g>
    <g stroke-linecap="butt" transform="matrix(1,0,0,1,15,15)" fill="white" text-rendering="geometricPrecision" font-family="sans-serif" shape-rendering="geometricPrecision" stroke="white" stroke-miterlimit="1.45">
      <text x="574.3246" xml:space="preserve" y="498.0351" clip-path="url(#clipPath2)" stroke="none">Дагула</text>
      <circle fill="none" r="24.5" clip-path="url(#clipPath2)" cx="593.7514" cy="493.3212" stroke="black"/>
    </g>
    <g fill="rgb(153,51,0)" text-rendering="geometricPrecision" shape-rendering="geometricPrecision" transform="matrix(1,0,0,1,15,15)" stroke="rgb(153,51,0)">
      <path d="M519.6261 204.8213 L562.7511 161.6962 L605.876 204.8213 L562.7511 247.9463 Z" fill-rule="evenodd" clip-path="url(#clipPath2)" stroke="none"/>
    </g>
    <g stroke-linecap="butt" transform="matrix(1,0,0,1,15,15)" fill="white" text-rendering="geometricPrecision" font-family="sans-serif" shape-rendering="geometricPrecision" stroke="white" stroke-miterlimit="1.45">
      <text x="538.9828" xml:space="preserve" y="202.1845" clip-path="url(#clipPath2)" stroke="none">Станция</text>
      <text x="549.8871" xml:space="preserve" y="216.8857" clip-path="url(#clipPath2)" stroke="none">Вега</text>
      <path fill="none" d="M519.6261 204.8213 L562.7511 161.6962 L605.876 204.8213 L562.7511 247.9463 Z" fill-rule="evenodd" clip-path="url(#clipPath2)" stroke="black"/>
    </g>
    <g fill="rgb(51,153,102)" text-rendering="geometricPrecision" shape-rendering="geometricPrecision" transform="matrix(1,0,0,1,15,15)" stroke="rgb(51,153,102)">
      <circle r="33.6533" clip-path="url(#clipPath2)" cx="566.2514" cy="342.8212" stroke="none"/>
    </g>
    <g stroke-linecap="butt" transform="matrix(1,0,0,1,15,15)" fill="white" text-rendering="geometricPrecision" font-family="sans-serif" shape-rendering="geometricPrecision" stroke="white" stroke-miterlimit="1.45">
      <text x="541.7651" xml:space="preserve" y="347.5351" clip-path="url(#clipPath2)" stroke="none">Марилак</text>
      <circle fill="none" r="33.6533" clip-path="url(#clipPath2)" cx="566.2514" cy="342.8212" stroke="black"/>
    </g>
    <g fill="maroon" text-rendering="geometricPrecision" shape-rendering="geometricPrecision" transform="matrix(1,0,0,1,15,15)" stroke="maroon">
      <circle r="36.1497" clip-path="url(#clipPath2)" cx="779.2514" cy="193.8212" stroke="none"/>
    </g>
    <g stroke-linecap="butt" transform="matrix(1,0,0,1,15,15)" fill="white" text-rendering="geometricPrecision" font-family="sans-serif" shape-rendering="geometricPrecision" stroke="white" stroke-miterlimit="1.45">
      <text x="751.935" xml:space="preserve" y="198.5351" clip-path="url(#clipPath2)" stroke="none">Иллирика</text>
      <circle fill="none" r="36.1497" clip-path="url(#clipPath2)" cx="779.2514" cy="193.8212" stroke="black"/>
    </g>
    <g fill="rgb(153,51,0)" text-rendering="geometricPrecision" shape-rendering="geometricPrecision" transform="matrix(1,0,0,1,15,15)" stroke="rgb(153,51,0)">
      <path d="M391.1265 790.3216 L434.2514 747.1966 L477.3764 790.3216 L434.2514 833.4465 Z" fill-rule="evenodd" clip-path="url(#clipPath2)" stroke="none"/>
    </g>
    <g stroke-linecap="butt" transform="matrix(1,0,0,1,15,15)" fill="white" text-rendering="geometricPrecision" font-family="sans-serif" shape-rendering="geometricPrecision" stroke="white" stroke-miterlimit="1.45">
      <text x="410.7963" xml:space="preserve" y="787.6844" clip-path="url(#clipPath2)" stroke="none">Ступица</text>
      <text x="409.4106" xml:space="preserve" y="802.3856" clip-path="url(#clipPath2)" stroke="none">Хеджена</text>
      <path fill="none" d="M391.1265 790.3216 L434.2514 747.1966 L477.3764 790.3216 L434.2514 833.4465 Z" fill-rule="evenodd" clip-path="url(#clipPath2)" stroke="black"/>
    </g>
    <g fill="rgb(51,153,102)" text-rendering="geometricPrecision" shape-rendering="geometricPrecision" transform="matrix(1,0,0,1,15,15)" stroke="rgb(51,153,102)">
      <circle r="24.5" clip-path="url(#clipPath2)" cx="439.7514" cy="946.3212" stroke="none"/>
    </g>
    <g stroke-linecap="butt" transform="matrix(1,0,0,1,15,15)" fill="white" text-rendering="geometricPrecision" font-family="sans-serif" shape-rendering="geometricPrecision" stroke="white" stroke-miterlimit="1.45">
      <text x="419.434" xml:space="preserve" y="951.035" clip-path="url(#clipPath2)" stroke="none">Аслунд</text>
      <circle fill="none" r="24.5" clip-path="url(#clipPath2)" cx="439.7514" cy="946.3212" stroke="black"/>
    </g>
    <g fill="rgb(51,153,102)" text-rendering="geometricPrecision" shape-rendering="geometricPrecision" transform="matrix(1,0,0,1,15,15)" stroke="rgb(51,153,102)">
      <circle r="24.5" clip-path="url(#clipPath2)" cx="763.7514" cy="849.3212" stroke="none"/>
    </g>
    <g text-rendering="geometricPrecision" stroke-miterlimit="1.45" shape-rendering="geometricPrecision" transform="matrix(1,0,0,1,15,15)" stroke-linecap="butt">
      <circle fill="none" r="24.5" clip-path="url(#clipPath2)" cx="763.7514" cy="849.3212"/>
    </g>
    <g fill="rgb(51,153,102)" text-rendering="geometricPrecision" shape-rendering="geometricPrecision" transform="matrix(1,0,0,1,15,15)" stroke="rgb(51,153,102)">
      <circle r="24.5" clip-path="url(#clipPath2)" cx="1117.7514" cy="371.3212" stroke="none"/>
    </g>
    <g stroke-linecap="butt" transform="matrix(1,0,0,1,15,15)" fill="white" text-rendering="geometricPrecision" font-family="sans-serif" shape-rendering="geometricPrecision" stroke="white" stroke-miterlimit="1.45">
      <text x="1100.2377" xml:space="preserve" y="376.0351" clip-path="url(#clipPath2)" stroke="none">Родео</text>
      <circle fill="none" r="24.5" clip-path="url(#clipPath2)" cx="1117.7514" cy="371.3212" stroke="black"/>
    </g>
    <g fill="maroon" text-rendering="geometricPrecision" shape-rendering="geometricPrecision" transform="matrix(1,0,0,1,15,15)" stroke="maroon">
      <circle r="32.625" clip-path="url(#clipPath2)" cx="642.7514" cy="794.3212" stroke="none"/>
    </g>
    <g stroke-linecap="butt" transform="matrix(1,0,0,1,15,15)" fill="white" text-rendering="geometricPrecision" font-family="sans-serif" shape-rendering="geometricPrecision" stroke="white" stroke-miterlimit="1.45">
      <text x="613.4487" xml:space="preserve" y="791.6844" clip-path="url(#clipPath2)" stroke="none">Архипелаг</text>
      <text x="615.725" xml:space="preserve" y="806.3856" clip-path="url(#clipPath2)" stroke="none">Джексона</text>
      <circle fill="none" r="32.625" clip-path="url(#clipPath2)" cx="642.7514" cy="794.3212" stroke="black"/>
    </g>
    <g fill="blue" text-rendering="geometricPrecision" shape-rendering="geometricPrecision" transform="matrix(1,0,0,1,15,15)" stroke="blue">
      <circle r="24.5" clip-path="url(#clipPath2)" cx="609.7514" cy="653.3212" stroke="none"/>
    </g>
    <g text-rendering="geometricPrecision" stroke-miterlimit="1.45" shape-rendering="geometricPrecision" transform="matrix(1,0,0,1,15,15)" stroke-linecap="butt">
      <circle fill="none" r="24.5" clip-path="url(#clipPath2)" cx="609.7514" cy="653.3212"/>
    </g>
    <g fill="rgb(51,153,102)" text-rendering="geometricPrecision" shape-rendering="geometricPrecision" transform="matrix(1,0,0,1,15,15)" stroke="rgb(51,153,102)">
      <circle r="24.5" clip-path="url(#clipPath2)" cx="578.7514" cy="920.3212" stroke="none"/>
    </g>
    <g text-rendering="geometricPrecision" stroke-miterlimit="1.45" shape-rendering="geometricPrecision" transform="matrix(1,0,0,1,15,15)" stroke-linecap="butt">
      <circle fill="none" r="24.5" clip-path="url(#clipPath2)" cx="578.7514" cy="920.3212"/>
    </g>
    <g fill="maroon" text-rendering="geometricPrecision" shape-rendering="geometricPrecision" transform="matrix(1,0,0,1,15,15)" stroke="maroon">
      <circle r="24.5" clip-path="url(#clipPath2)" cx="739.7514" cy="731.3212" stroke="none"/>
    </g>
    <g stroke-linecap="butt" transform="matrix(1,0,0,1,15,15)" fill="white" text-rendering="geometricPrecision" font-family="sans-serif" shape-rendering="geometricPrecision" stroke="white" stroke-miterlimit="1.45">
      <text x="716.3666" xml:space="preserve" y="736.035" clip-path="url(#clipPath2)" stroke="none">Эскобар</text>
      <circle fill="none" r="24.5" clip-path="url(#clipPath2)" cx="739.7514" cy="731.3212" stroke="black"/>
    </g>
    <g fill="rgb(0,204,255)" text-rendering="geometricPrecision" shape-rendering="geometricPrecision" transform="matrix(1,0,0,1,15,15)" stroke="rgb(0,204,255)">
      <circle r="30.3248" clip-path="url(#clipPath2)" cx="716.7514" cy="349.3212" stroke="none"/>
    </g>
    <g stroke-linecap="butt" transform="matrix(1,0,0,1,15,15)" fill="white" text-rendering="geometricPrecision" font-family="sans-serif" shape-rendering="geometricPrecision" stroke="white" stroke-miterlimit="1.45">
      <text x="692.643" xml:space="preserve" y="346.6845" clip-path="url(#clipPath2)" stroke="none">Сумерки</text>
      <text x="699.9291" xml:space="preserve" y="361.3857" clip-path="url(#clipPath2)" stroke="none">Зоава</text>
      <circle fill="none" r="30.3248" clip-path="url(#clipPath2)" cx="716.7514" cy="349.3212" stroke="black"/>
    </g>
    <g fill="rgb(0,204,255)" text-rendering="geometricPrecision" shape-rendering="geometricPrecision" transform="matrix(1,0,0,1,15,15)" stroke="rgb(0,204,255)">
      <circle r="24.5" clip-path="url(#clipPath2)" cx="1022.7514" cy="267.3212" stroke="none"/>
    </g>
    <g stroke-linecap="butt" transform="matrix(1,0,0,1,15,15)" fill="white" text-rendering="geometricPrecision" font-family="sans-serif" shape-rendering="geometricPrecision" stroke="white" stroke-miterlimit="1.45">
      <text x="1011.226" xml:space="preserve" y="264.6845" clip-path="url(#clipPath2)" stroke="none">Дом</text>
      <text x="1002.3784" xml:space="preserve" y="279.3857" clip-path="url(#clipPath2)" stroke="none">Квадди</text>
      <circle fill="none" r="24.5" clip-path="url(#clipPath2)" cx="1022.7514" cy="267.3212" stroke="black"/>
    </g>
    <g fill="blue" text-rendering="geometricPrecision" shape-rendering="geometricPrecision" transform="matrix(1,0,0,1,15,15)" stroke="blue">
      <circle r="24.5" clip-path="url(#clipPath2)" cx="973.7514" cy="409.3212" stroke="none"/>
    </g>
    <g stroke-linecap="butt" transform="matrix(1,0,0,1,15,15)" fill="white" text-rendering="geometricPrecision" font-family="sans-serif" shape-rendering="geometricPrecision" stroke="white" stroke-miterlimit="1.45">
      <text x="952.9975" xml:space="preserve" y="414.0351" clip-path="url(#clipPath2)" stroke="none">Ориент</text>
      <circle fill="none" r="24.5" clip-path="url(#clipPath2)" cx="973.7514" cy="409.3212" stroke="black"/>
    </g>
    <g fill="rgb(51,153,102)" text-rendering="geometricPrecision" shape-rendering="geometricPrecision" transform="matrix(1,0,0,1,15,15)" stroke="rgb(51,153,102)">
      <ellipse rx="25.1875" ry="26.0632" clip-path="url(#clipPath2)" cx="828.7514" cy="527.8212" stroke="none"/>
    </g>
    <g stroke-linecap="butt" transform="matrix(1,0,0,1,15,15)" fill="white" text-rendering="geometricPrecision" font-family="sans-serif" shape-rendering="geometricPrecision" stroke="white" stroke-miterlimit="1.45">
      <text x="818.7495" xml:space="preserve" y="525.1844" clip-path="url(#clipPath2)" stroke="none">Тау</text>
      <text x="815.8198" xml:space="preserve" y="539.8856" clip-path="url(#clipPath2)" stroke="none">Кита</text>
      <ellipse clip-path="url(#clipPath2)" fill="none" rx="25.1875" cx="828.7514" ry="26.0632" cy="527.8212" stroke="black"/>
    </g>
    <g fill="maroon" text-rendering="geometricPrecision" shape-rendering="geometricPrecision" transform="matrix(1,0,0,1,15,15)" stroke="maroon">
      <circle r="32.8212" clip-path="url(#clipPath2)" cx="715.7514" cy="562.8212" stroke="none"/>
    </g>
    <g stroke-linecap="butt" transform="matrix(1,0,0,1,15,15)" fill="white" text-rendering="geometricPrecision" font-family="sans-serif" shape-rendering="geometricPrecision" stroke="white" stroke-miterlimit="1.45">
      <text x="694.9946" xml:space="preserve" y="560.1844" clip-path="url(#clipPath2)" stroke="none">Махата</text>
      <text x="691.643" xml:space="preserve" y="574.8856" clip-path="url(#clipPath2)" stroke="none">Солярис</text>
      <circle fill="none" r="32.8212" clip-path="url(#clipPath2)" cx="715.7514" cy="562.8212" stroke="black"/>
    </g>
    <g fill="rgb(0,204,255)" text-rendering="geometricPrecision" shape-rendering="geometricPrecision" transform="matrix(1,0,0,1,15,15)" stroke="rgb(0,204,255)">
      <circle r="24.5" clip-path="url(#clipPath2)" cx="812.7514" cy="684.3212" stroke="none"/>
    </g>
    <g stroke-linecap="butt" transform="matrix(1,0,0,1,15,15)" fill="white" text-rendering="geometricPrecision" font-family="sans-serif" shape-rendering="geometricPrecision" stroke="white" stroke-miterlimit="1.45">
      <text x="794.9155" xml:space="preserve" y="689.035" clip-path="url(#clipPath2)" stroke="none">Земля</text>
      <circle fill="none" r="24.5" clip-path="url(#clipPath2)" cx="812.7514" cy="684.3212" stroke="black"/>
    </g>
    <g fill="rgb(0,204,255)" text-rendering="geometricPrecision" shape-rendering="geometricPrecision" transform="matrix(1,0,0,1,15,15)" stroke="rgb(0,204,255)">
      <circle r="24.5" clip-path="url(#clipPath2)" cx="1153.7514" cy="822.3212" stroke="none"/>
    </g>
    <g stroke-linecap="butt" transform="matrix(1,0,0,1,15,15)" fill="white" text-rendering="geometricPrecision" font-family="sans-serif" shape-rendering="geometricPrecision" stroke="white" stroke-miterlimit="1.45">
      <text x="1139.1" xml:space="preserve" y="827.035" clip-path="url(#clipPath2)" stroke="none">Илла</text>
      <circle fill="none" r="24.5" clip-path="url(#clipPath2)" cx="1153.7514" cy="822.3212" stroke="black"/>
    </g>
    <g fill="rgb(153,51,0)" text-rendering="geometricPrecision" shape-rendering="geometricPrecision" transform="matrix(1,0,0,1,15,15)" stroke="rgb(153,51,0)">
      <path d="M972.6263 551.3212 L1015.7513 508.1961 L1058.8765 551.3212 L1015.7513 594.4461 Z" fill-rule="evenodd" clip-path="url(#clipPath2)" stroke="none"/>
    </g>
    <g stroke-linecap="butt" transform="matrix(1,0,0,1,15,15)" fill="white" text-rendering="geometricPrecision" font-family="sans-serif" shape-rendering="geometricPrecision" stroke="white" stroke-miterlimit="1.45">
      <text x="991.9828" xml:space="preserve" y="548.6844" clip-path="url(#clipPath2)" stroke="none">Станция</text>
      <text x="995.4516" xml:space="preserve" y="563.3856" clip-path="url(#clipPath2)" stroke="none">Далтон</text>
      <path fill="none" d="M972.6263 551.3212 L1015.7513 508.1961 L1058.8765 551.3212 L1015.7513 594.4461 Z" fill-rule="evenodd" clip-path="url(#clipPath2)" stroke="black"/>
    </g>
    <g fill="rgb(153,51,0)" text-rendering="geometricPrecision" shape-rendering="geometricPrecision" transform="matrix(1,0,0,1,15,15)" stroke="rgb(153,51,0)">
      <path d="M959.1266 749.321 L1002.2515 706.1959 L1045.3766 749.321 L1002.2515 792.4461 Z" fill-rule="evenodd" clip-path="url(#clipPath2)" stroke="none"/>
    </g>
    <g stroke-linecap="butt" transform="matrix(1,0,0,1,15,15)" fill="white" text-rendering="geometricPrecision" font-family="sans-serif" shape-rendering="geometricPrecision" stroke="white" stroke-miterlimit="1.45">
      <text x="978.4828" xml:space="preserve" y="746.6844" clip-path="url(#clipPath2)" stroke="none">Станция</text>
      <text x="981.143" xml:space="preserve" y="761.3856" clip-path="url(#clipPath2)" stroke="none">Морита</text>
      <path fill="none" d="M959.1266 749.321 L1002.2515 706.1959 L1045.3766 749.321 L1002.2515 792.4461 Z" fill-rule="evenodd" clip-path="url(#clipPath2)" stroke="black"/>
    </g>
    <g fill="rgb(51,153,102)" text-rendering="geometricPrecision" shape-rendering="geometricPrecision" transform="matrix(1,0,0,1,15,15)" stroke="rgb(51,153,102)">
      <circle r="24.5" clip-path="url(#clipPath2)" cx="1180.7514" cy="561.3212" stroke="none"/>
    </g>
    <g stroke-linecap="butt" transform="matrix(1,0,0,1,15,15)" fill="white" text-rendering="geometricPrecision" font-family="sans-serif" shape-rendering="geometricPrecision" stroke="white" stroke-miterlimit="1.45">
      <text x="1170.7494" xml:space="preserve" y="558.6844" clip-path="url(#clipPath2)" stroke="none">Тау</text>
      <text x="1163.2377" xml:space="preserve" y="573.3856" clip-path="url(#clipPath2)" stroke="none">Верде</text>
      <circle fill="none" r="24.5" clip-path="url(#clipPath2)" cx="1180.7514" cy="561.3212" stroke="black"/>
    </g>
    <g fill="rgb(255,102,0)" text-rendering="geometricPrecision" shape-rendering="geometricPrecision" transform="matrix(1,0,0,1,15,15)" stroke="rgb(255,102,0)">
      <circle r="32.3011" clip-path="url(#clipPath2)" cx="906.7514" cy="654.3212" stroke="none"/>
    </g>
    <g text-rendering="geometricPrecision" stroke-miterlimit="1.45" shape-rendering="geometricPrecision" font-family="sans-serif" transform="matrix(1,0,0,1,15,15)" stroke-linecap="butt">
      <text x="883.1674" xml:space="preserve" y="651.6844" clip-path="url(#clipPath2)" stroke="none">Колония</text>
      <text x="893.392" xml:space="preserve" y="666.3856" clip-path="url(#clipPath2)" stroke="none">Бета</text>
      <circle fill="none" r="32.3011" clip-path="url(#clipPath2)" cx="906.7514" cy="654.3212"/>
    </g>
    <g fill="rgb(255,102,0)" text-rendering="geometricPrecision" shape-rendering="geometricPrecision" transform="matrix(1,0,0,1,15,15)" stroke="rgb(255,102,0)">
      <circle r="27.1004" clip-path="url(#clipPath2)" cx="852.2514" cy="387.8212" stroke="none"/>
    </g>
    <g text-rendering="geometricPrecision" stroke-miterlimit="1.45" shape-rendering="geometricPrecision" font-family="sans-serif" transform="matrix(1,0,0,1,15,15)" stroke-linecap="butt">
      <text x="828.5151" xml:space="preserve" y="392.5351" clip-path="url(#clipPath2)" stroke="none">Лайруба</text>
      <circle fill="none" r="27.1004" clip-path="url(#clipPath2)" cx="852.2514" cy="387.8212"/>
    </g>
    <g fill="rgb(153,51,0)" text-rendering="geometricPrecision" shape-rendering="geometricPrecision" transform="matrix(1,0,0,1,15,15)" stroke="rgb(153,51,0)">
      <path d="M679.1265 959.8212 L722.2515 916.6962 L765.3765 959.8212 L722.2515 1002.9462 Z" fill-rule="evenodd" clip-path="url(#clipPath2)" stroke="none"/>
    </g>
    <g stroke-linecap="butt" transform="matrix(1,0,0,1,15,15)" fill="white" text-rendering="geometricPrecision" font-family="sans-serif" shape-rendering="geometricPrecision" stroke="white" stroke-miterlimit="1.45">
      <text x="698.4828" xml:space="preserve" y="957.1844" clip-path="url(#clipPath2)" stroke="none">Станция</text>
      <text x="705.2534" xml:space="preserve" y="971.8856" clip-path="url(#clipPath2)" stroke="none">Клайн</text>
      <path fill="none" d="M679.1265 959.8212 L722.2515 916.6962 L765.3765 959.8212 L722.2515 1002.9462 Z" fill-rule="evenodd" clip-path="url(#clipPath2)" stroke="black"/>
    </g>
    <g fill="maroon" text-rendering="geometricPrecision" shape-rendering="geometricPrecision" transform="matrix(1,0,0,1,15,15)" stroke="maroon">
      <circle r="24.5" clip-path="url(#clipPath2)" cx="811.7514" cy="1113.3212" stroke="none"/>
    </g>
    <g text-rendering="geometricPrecision" stroke-miterlimit="1.45" shape-rendering="geometricPrecision" transform="matrix(1,0,0,1,15,15)" stroke-linecap="butt">
      <circle fill="none" r="24.5" clip-path="url(#clipPath2)" cx="811.7514" cy="1113.3212"/>
    </g>
    <g fill="rgb(0,204,255)" text-rendering="geometricPrecision" shape-rendering="geometricPrecision" transform="matrix(1,0,0,1,15,15)" stroke="rgb(0,204,255)">
      <circle r="24.5" clip-path="url(#clipPath2)" cx="884.7514" cy="1015.3212" stroke="none"/>
    </g>
    <g stroke-linecap="butt" transform="matrix(1,0,0,1,15,15)" fill="white" text-rendering="geometricPrecision" font-family="sans-serif" shape-rendering="geometricPrecision" stroke="white" stroke-miterlimit="1.45">
      <text x="869.1625" xml:space="preserve" y="1020.035" clip-path="url(#clipPath2)" stroke="none">Афон</text>
      <circle fill="none" r="24.5" clip-path="url(#clipPath2)" cx="884.7514" cy="1015.3212" stroke="black"/>
    </g>
    <g fill="rgb(0,204,255)" text-rendering="geometricPrecision" shape-rendering="geometricPrecision" transform="matrix(1,0,0,1,15,15)" stroke="rgb(0,204,255)">
      <circle r="24.5" clip-path="url(#clipPath2)" cx="693.7514" cy="1131.3212" stroke="none"/>
    </g>
    <g text-rendering="geometricPrecision" stroke-miterlimit="1.45" shape-rendering="geometricPrecision" transform="matrix(1,0,0,1,15,15)" stroke-linecap="butt">
      <circle fill="none" r="24.5" clip-path="url(#clipPath2)" cx="693.7514" cy="1131.3212"/>
    </g>
    <g fill="blue" text-rendering="geometricPrecision" shape-rendering="geometricPrecision" transform="matrix(1,0,0,1,15,15)" stroke="blue">
      <circle r="34.9015" clip-path="url(#clipPath2)" cx="562.2514" cy="1077.8212" stroke="none"/>
    </g>
    <g stroke-linecap="butt" transform="matrix(1,0,0,1,15,15)" fill="white" text-rendering="geometricPrecision" font-family="sans-serif" shape-rendering="geometricPrecision" stroke="white" stroke-miterlimit="1.45">
      <text x="544.808" xml:space="preserve" y="1075.1844" clip-path="url(#clipPath2)" stroke="none">Новая</text>
      <text x="535.436" xml:space="preserve" y="1089.8856" clip-path="url(#clipPath2)" stroke="none">Бразилия</text>
      <circle fill="none" r="34.9015" clip-path="url(#clipPath2)" cx="562.2514" cy="1077.8212" stroke="black"/>
    </g>
    <g fill="blue" text-rendering="geometricPrecision" shape-rendering="geometricPrecision" transform="matrix(1,0,0,1,15,15)" stroke="blue">
      <circle r="33.6013" clip-path="url(#clipPath2)" cx="389.7514" cy="1089.3212" stroke="none"/>
    </g>
    <g stroke-linecap="butt" transform="matrix(1,0,0,1,15,15)" fill="white" text-rendering="geometricPrecision" font-family="sans-serif" shape-rendering="geometricPrecision" stroke="white" stroke-miterlimit="1.45">
      <text x="369.7387" xml:space="preserve" y="1086.6844" clip-path="url(#clipPath2)" stroke="none">Варуса</text>
      <text x="367.3129" xml:space="preserve" y="1101.3856" clip-path="url(#clipPath2)" stroke="none">Тертиус</text>
      <circle fill="none" r="33.6013" clip-path="url(#clipPath2)" cx="389.7514" cy="1089.3212" stroke="black"/>
    </g>
    <g fill="rgb(51,153,102)" text-rendering="geometricPrecision" shape-rendering="geometricPrecision" transform="matrix(1,0,0,1,15,15)" stroke="rgb(51,153,102)">
      <circle r="24.5" clip-path="url(#clipPath2)" cx="529.7514" cy="732.3212" stroke="none"/>
    </g>
    <g stroke-linecap="butt" transform="matrix(1,0,0,1,15,15)" fill="white" text-rendering="geometricPrecision" font-family="sans-serif" shape-rendering="geometricPrecision" stroke="white" stroke-miterlimit="1.45">
      <text x="507.3276" xml:space="preserve" y="737.035" clip-path="url(#clipPath2)" stroke="none">Зергияр</text>
      <circle fill="none" r="24.5" clip-path="url(#clipPath2)" cx="529.7514" cy="732.3212" stroke="black"/>
    </g>
    <g fill="rgb(0,204,255)" text-rendering="geometricPrecision" shape-rendering="geometricPrecision" transform="matrix(1,0,0,1,15,15)" stroke="rgb(0,204,255)">
      <circle r="40.5" clip-path="url(#clipPath2)" cx="882.7514" cy="839.3212" stroke="none"/>
    </g>
    <g stroke-linecap="butt" transform="matrix(1,0,0,1,15,15)" fill="white" text-rendering="geometricPrecision" font-family="sans-serif" shape-rendering="geometricPrecision" stroke="white" stroke-miterlimit="1.45">
      <text x="849.7162" xml:space="preserve" y="844.035" clip-path="url(#clipPath2)" stroke="none">Кибо-Дайни</text>
      <circle fill="none" r="40.5" clip-path="url(#clipPath2)" cx="882.7514" cy="839.3212" stroke="black"/>
      <path fill="none" d="M323.7207 774.7995 L317.7821 915.8429" clip-path="url(#clipPath2)" stroke="black"/>
      <path fill="none" d="M300.9307 744.5922 L190.5721 718.0502" clip-path="url(#clipPath2)" stroke="black"/>
      <path fill="none" d="M192.5505 818.1385 L302.9524 761.5038" clip-path="url(#clipPath2)" stroke="black"/>
      <path fill="none" d="M314.4409 772.546 L290.0619 825.0964" clip-path="url(#clipPath2)" stroke="black"/>
      <path fill="none" d="M67.895 490.2451 L164.6862 508.7262" clip-path="url(#clipPath2)" stroke="black"/>
      <path fill="none" d="M202.2063 533.796 L267.2965 632.8464" clip-path="url(#clipPath2)" stroke="black"/>
      <path fill="none" d="M151.7107 160.4647 L216.8254 228.6079" clip-path="url(#clipPath2)" stroke="black"/>
      <path fill="none" d="M429.0898 384.9717 L457.413 453.6707" clip-path="url(#clipPath2)" stroke="black"/>
      <path fill="none" d="M324.1103 725.8296 L320.3925 583.8128" clip-path="url(#clipPath2)" stroke="black"/>
      <path fill="none" d="M258.2489 245.9737 L350.2539 244.6687" clip-path="url(#clipPath2)" stroke="black"/>
      <path fill="none" d="M242.3539 269.2613 L279.1489 367.3811" clip-path="url(#clipPath2)" stroke="black"/>
      <path fill="none" d="M395.7847 367.4051 L311.7181 385.2373" clip-path="url(#clipPath2)" stroke="black"/>
      <path fill="none" d="M204.1131 494.2354 L272.3897 409.407" clip-path="url(#clipPath2)" stroke="black"/>
      <path fill="none" d="M292.3095 414.3935 L315.1933 535.2489" clip-path="url(#clipPath2)" stroke="black"/>
      <path fill="none" d="M300.2929 369.2746 L362.2099 265.3678" clip-path="url(#clipPath2)" stroke="black"/>
      <path fill="none" d="M491.0348 479.5717 L569.468 490.0706" clip-path="url(#clipPath2)" stroke="black"/>
      <path fill="none" d="M560.3238 65.6374 L562.0123 162.4476" clip-path="url(#clipPath2)" stroke="black"/>
      <path fill="none" d="M398.7279 239.2836 L527.1516 212.3009" clip-path="url(#clipPath2)" stroke="black"/>
      <path fill="none" d="M444.0372 359.0886 L532.8923 347.2615" clip-path="url(#clipPath2)" stroke="black"/>
      <path fill="none" d="M302.737 838.8411 L402.7534 801.9418" clip-path="url(#clipPath2)" stroke="black"/>
      <path fill="none" d="M299.03 669.635 L411.4394 769.9613" clip-path="url(#clipPath2)" stroke="black"/>
      <path fill="none" d="M438.8882 921.8364 L435.7196 831.9655" clip-path="url(#clipPath2)" stroke="black"/>
      <path fill="none" d="M741.4474 839.183 L672.4521 807.8215" clip-path="url(#clipPath2)" stroke="black"/>
      <path fill="none" d="M476.5775 791.1332 L610.1324 793.6954" clip-path="url(#clipPath2)" stroke="black"/>
      <path fill="none" d="M615.3346 677.1766 L635.3167 762.5546" clip-path="url(#clipPath2)" stroke="black"/>
      <path fill="none" d="M589.8466 898.4775 L627.9767 823.4089" clip-path="url(#clipPath2)" stroke="black"/>
      <path fill="none" d="M670.1121 776.5508 L719.2047 744.666" clip-path="url(#clipPath2)" stroke="black"/>
      <path fill="none" d="M584.9904 225.6883 L694.6373 328.5712" clip-path="url(#clipPath2)" stroke="black"/>
      <path fill="none" d="M765.77 227.363 L728.0605 321.1841" clip-path="url(#clipPath2)" stroke="black"/>
      <path fill="none" d="M599.8734 344.2733 L686.4548 348.0127" clip-path="url(#clipPath2)" stroke="black"/>
      <path fill="none" d="M1094.0624 377.5725 L997.4405 403.0699" clip-path="url(#clipPath2)" stroke="black"/>
      <path fill="none" d="M1014.7596 290.4811 L981.7432 386.1613" clip-path="url(#clipPath2)" stroke="black"/>
      <path fill="none" d="M732.8688 375.0083 L815.0354 505.9613" clip-path="url(#clipPath2)" stroke="black"/>
      <path fill="none" d="M954.7807 424.8248 L848.5176 511.6674" clip-path="url(#clipPath2)" stroke="black"/>
      <path fill="none" d="M749.5685 708.8741 L818.3667 551.566" clip-path="url(#clipPath2)" stroke="black"/>
      <path fill="none" d="M615.0394 505.4484 L687.2331 546.5751" clip-path="url(#clipPath2)" stroke="black"/>
      <path fill="none" d="M747.1031 553.1105 L804.6217 535.295" clip-path="url(#clipPath2)" stroke="black"/>
      <path fill="none" d="M736.2289 588.4708 L797.4656 665.1746" clip-path="url(#clipPath2)" stroke="black"/>
      <path fill="none" d="M826.1016 553.7397 L815.2432 659.9482" clip-path="url(#clipPath2)" stroke="black"/>
      <path fill="none" d="M792.1819 697.6309 L670.1424 776.5976" clip-path="url(#clipPath2)" stroke="black"/>
      <path fill="none" d="M853.7552 530.9634 L977.4276 546.5051" clip-path="url(#clipPath2)" stroke="black"/>
      <path fill="none" d="M1131.6801 811.6862 L1031.3539 763.3442" clip-path="url(#clipPath2)" stroke="black"/>
      <path fill="none" d="M835.926 692.2703 L970.1314 738.3038" clip-path="url(#clipPath2)" stroke="black"/>
      <path fill="none" d="M1156.2963 559.8391 L1056.412 553.7855" clip-path="url(#clipPath2)" stroke="black"/>
      <path fill="none" d="M762.0003 721.0627 L877.4182 667.8461" clip-path="url(#clipPath2)" stroke="black"/>
      <path fill="none" d="M875.9794 664.142 L836.0916 676.8722" clip-path="url(#clipPath2)" stroke="black"/>
      <path fill="none" d="M930.2288 632.1362 L993.5982 572.2549" clip-path="url(#clipPath2)" stroke="black"/>
      <path fill="none" d="M833.0618 502.1425 L847.7652 414.5477" clip-path="url(#clipPath2)" stroke="black"/>
      <path fill="none" d="M656.8779 823.7292 L708.2542 930.6824" clip-path="url(#clipPath2)" stroke="black"/>
      <path fill="none" d="M737.8805 755.7496 L725.3231 919.7144" clip-path="url(#clipPath2)" stroke="black"/>
      <path fill="none" d="M738.1368 987.0659 L799.4108 1092.1561" clip-path="url(#clipPath2)" stroke="black"/>
      <path fill="none" d="M754.4261 970.8101 L861.5663 1007.4026" clip-path="url(#clipPath2)" stroke="black"/>
      <path fill="none" d="M716.1075 996.7925 L697.7678 1107.1526" clip-path="url(#clipPath2)" stroke="black"/>
      <path fill="none" d="M697.4467 978.1146 L590.3402 1057.1057" clip-path="url(#clipPath2)" stroke="black"/>
      <path fill="none" d="M527.4272 1080.1428 L423.2783 1087.0861" clip-path="url(#clipPath2)" stroke="black"/>
      <path fill="none" d="M327.5306 962.3226 L374.968 1059.1467" clip-path="url(#clipPath2)" stroke="black"/>
      <path fill="none" d="M349.1575 748.1782 L505.3453 734.4642" clip-path="url(#clipPath2)" stroke="black"/>
      <path fill="none" d="M554.2511 732.2045 L715.2517 731.4379" clip-path="url(#clipPath2)" stroke="black"/>
      <path fill="none" d="M759.3021 746.0867 L850.4329 814.9128" clip-path="url(#clipPath2)" stroke="black"/>
    </g>
  </g>
</svg>
